<?xml version="1.0" encoding="UTF-8"?>
<!DOCTYPE svg PUBLIC "-//W3C//DTD SVG 1.1//EN" "http://www.w3.org/Graphics/SVG/1.1/DTD/svg11.dtd">
<!-- Creator: CorelDRAW X8 -->
<svg xmlns="http://www.w3.org/2000/svg" xml:space="preserve" width="90mm" height="50mm" version="1.1" style="shape-rendering:geometricPrecision; text-rendering:geometricPrecision; image-rendering:optimizeQuality; fill-rule:evenodd; clip-rule:evenodd"
viewBox="0 0 9000 5000"
 xmlns:xlink="http://www.w3.org/1999/xlink">
 <defs>
  <style type="text/css">
   <![CDATA[
    .fil1 {fill:black}
    .fil0 {fill:black;fill-rule:nonzero}
   ]]>
  </style>
 </defs>
 <g id="Слой_x0020_1">
  <metadata id="CorelCorpID_0Corel-Layer"/>
  <path class="fil0" d="M940 2900l0 593 -126 0 0 -493 -266 0 0 493 -126 0 0 -593 518 0zm746 604c-93,0 -165,-27 -217,-81 -52,-53 -78,-128 -78,-222 0,-97 24,-174 72,-229 49,-56 115,-83 200,-83 78,0 140,23 185,71 46,48 68,113 68,197l0 68 -395 0c2,58 17,102 47,133 29,31 70,46 124,46 35,0 67,-3 97,-10 31,-6 63,-17 98,-33l0 103c-31,15 -62,25 -94,31 -31,6 -67,9 -107,9zm-23 -520c-41,0 -73,13 -97,38 -24,26 -38,63 -43,112l269 0c0,-49 -12,-87 -35,-112 -23,-25 -54,-38 -94,-38zm788 -84l0 216c0,61 32,91 95,91 30,0 60,-4 89,-12 29,-9 60,-22 93,-41l0 -254 127 0 0 593 -127 0 0 -252c-34,22 -68,38 -100,48 -33,10 -68,15 -106,15 -62,0 -111,-16 -145,-48 -35,-32 -52,-77 -52,-134l0 -222 126 0zm1279 593l-26 -82 -4 0c-28,36 -57,61 -86,74 -29,13 -66,19 -112,19 -58,0 -104,-16 -136,-47 -33,-32 -49,-76 -49,-134 0,-61 22,-107 68,-138 45,-31 114,-48 207,-51l103 -4 0 -31c0,-38 -9,-67 -27,-85 -17,-19 -45,-29 -82,-29 -30,0 -60,5 -87,14 -28,9 -55,19 -81,31l-41 -90c32,-17 68,-29 106,-38 38,-9 74,-13 108,-13 76,0 133,16 171,49 39,33 58,85 58,155l0 400 -90 0zm-188 -86c46,0 83,-12 110,-38 28,-26 42,-62 42,-108l0 -51 -76 3c-60,2 -103,12 -130,30 -27,17 -41,45 -41,81 0,27 8,47 24,62 16,14 39,21 71,21zm1590 -906l0 99 -541 0 0 1132 -127 0 0 -1132 -526 0 0 -99 1194 0zm137 399l0 238 279 0 0 -238 126 0 0 593 -126 0 0 -256 -279 0 0 256 -127 0 0 -593 127 0zm998 0l0 304c0,35 -3,87 -9,156l298 -460 154 0 0 593 -121 0 0 -299c0,-16 1,-43 3,-80 2,-36 4,-63 5,-80l-297 459 -154 0 0 -593 121 0zm1282 0l139 0 -246 286 267 307 -145 0 -257 -301 0 301 -126 0 0 -593 126 0 0 288 242 -288zm784 0l0 237 142 0c86,0 150,14 192,43 42,28 63,72 63,129 0,60 -22,106 -64,137 -42,32 -105,47 -188,47l-271 0 0 -494 -189 0 0 -99 315 0zm270 412c0,-30 -11,-51 -33,-63 -21,-12 -54,-17 -98,-17l-139 0 0 168 142 0c85,0 128,-30 128,-88z"/>
  <path class="fil1" d="M7201 1677c-564,-128 -17,-838 342,-406 133,160 105,404 -36,544 -415,413 -1392,-24 -1740,-113 -819,-208 -941,10 -1262,15 -273,-41 -330,-121 -702,-100 -823,46 -1129,431 -1868,313 -488,-78 -604,-632 -218,-794 520,-219 622,666 68,455 58,16 120,97 230,63 331,-101 256,-610 -166,-606 -482,5 -595,636 -161,881 403,227 1534,256 2084,192 540,-63 621,-115 738,-117 132,-1 187,30 623,109 588,108 1627,70 2167,-89 426,-126 590,-668 160,-896 -514,-271 -823,581 -259,549z"/>
 </g>
</svg>
