<?xml version="1.0" encoding="UTF-8" standalone="no"?>
<!-- Creator: CorelDRAW X8 -->

<svg
   xmlns:dc="http://purl.org/dc/elements/1.1/"
   xmlns:cc="http://creativecommons.org/ns#"
   xmlns:rdf="http://www.w3.org/1999/02/22-rdf-syntax-ns#"
   xmlns:svg="http://www.w3.org/2000/svg"
   xmlns="http://www.w3.org/2000/svg"
   xmlns:sodipodi="http://sodipodi.sourceforge.net/DTD/sodipodi-0.dtd"
   xmlns:inkscape="http://www.inkscape.org/namespaces/inkscape"
   xml:space="preserve"
   width="110.13885"
   height="35.582001"
   version="1.1"
   style="clip-rule:evenodd;fill-rule:evenodd;image-rendering:optimizeQuality;shape-rendering:geometricPrecision;text-rendering:geometricPrecision"
   viewBox="0 0 3108.363 1004.2031"
   id="svg2"
   inkscape:version="0.91 r13725"
   sodipodi:docname="logoPechatnik1.svg"><metadata
     id="metadata16"><rdf:RDF><cc:Work
         rdf:about=""><dc:format>image/svg+xml</dc:format><dc:type
           rdf:resource="http://purl.org/dc/dcmitype/StillImage" /><dc:title></dc:title></cc:Work></rdf:RDF></metadata><sodipodi:namedview
     pagecolor="#ffffff"
     bordercolor="#666666"
     borderopacity="1"
     objecttolerance="10"
     gridtolerance="10"
     guidetolerance="10"
     inkscape:pageopacity="0"
     inkscape:pageshadow="2"
     inkscape:window-width="1865"
     inkscape:window-height="1056"
     id="namedview14"
     showgrid="false"
     inkscape:zoom="0.96269136"
     inkscape:cx="157.99987"
     inkscape:cy="-51.911877"
     inkscape:window-x="55"
     inkscape:window-y="24"
     inkscape:window-maximized="1"
     inkscape:current-layer="svg2"
     units="px"
     fit-margin-top="0"
     fit-margin-left="0"
     fit-margin-right="0"
     fit-margin-bottom="0"
     inkscape:showpageshadow="true"
     showborder="true" /><defs
     id="defs4"><style
       type="text/css"
       id="style6"><![CDATA[
    .fil1 {fill:black}
    .fil0 {fill:black;fill-rule:nonzero}
   ]]></style></defs><g
     id="Слой_x0020_1"
     transform="matrix(0.37414094,0,0,0.37414094,-157.88748,-392.09093)"><metadata
       id="CorelCorpID_0Corel-Layer" /><path
       class="fil0"
       d="m 940,2900 0,593 -126,0 0,-493 -266,0 0,493 -126,0 0,-593 518,0 z m 746,604 c -93,0 -165,-27 -217,-81 -52,-53 -78,-128 -78,-222 0,-97 24,-174 72,-229 49,-56 115,-83 200,-83 78,0 140,23 185,71 46,48 68,113 68,197 l 0,68 -395,0 c 2,58 17,102 47,133 29,31 70,46 124,46 35,0 67,-3 97,-10 31,-6 63,-17 98,-33 l 0,103 c -31,15 -62,25 -94,31 -31,6 -67,9 -107,9 z m -23,-520 c -41,0 -73,13 -97,38 -24,26 -38,63 -43,112 l 269,0 c 0,-49 -12,-87 -35,-112 -23,-25 -54,-38 -94,-38 z m 788,-84 0,216 c 0,61 32,91 95,91 30,0 60,-4 89,-12 29,-9 60,-22 93,-41 l 0,-254 127,0 0,593 -127,0 0,-252 c -34,22 -68,38 -100,48 -33,10 -68,15 -106,15 -62,0 -111,-16 -145,-48 -35,-32 -52,-77 -52,-134 l 0,-222 126,0 z m 1279,593 -26,-82 -4,0 c -28,36 -57,61 -86,74 -29,13 -66,19 -112,19 -58,0 -104,-16 -136,-47 -33,-32 -49,-76 -49,-134 0,-61 22,-107 68,-138 45,-31 114,-48 207,-51 l 103,-4 0,-31 c 0,-38 -9,-67 -27,-85 -17,-19 -45,-29 -82,-29 -30,0 -60,5 -87,14 -28,9 -55,19 -81,31 l -41,-90 c 32,-17 68,-29 106,-38 38,-9 74,-13 108,-13 76,0 133,16 171,49 39,33 58,85 58,155 l 0,400 -90,0 z m -188,-86 c 46,0 83,-12 110,-38 28,-26 42,-62 42,-108 l 0,-51 -76,3 c -60,2 -103,12 -130,30 -27,17 -41,45 -41,81 0,27 8,47 24,62 16,14 39,21 71,21 z m 1590,-906 0,99 -541,0 0,1132 -127,0 0,-1132 -526,0 0,-99 1194,0 z m 137,399 0,238 279,0 0,-238 126,0 0,593 -126,0 0,-256 -279,0 0,256 -127,0 0,-593 127,0 z m 998,0 0,304 c 0,35 -3,87 -9,156 l 298,-460 154,0 0,593 -121,0 0,-299 c 0,-16 1,-43 3,-80 2,-36 4,-63 5,-80 l -297,459 -154,0 0,-593 121,0 z m 1282,0 139,0 -246,286 267,307 -145,0 -257,-301 0,301 -126,0 0,-593 126,0 0,288 242,-288 z m 784,0 0,237 142,0 c 86,0 150,14 192,43 42,28 63,72 63,129 0,60 -22,106 -64,137 -42,32 -105,47 -188,47 l -271,0 0,-494 -189,0 0,-99 315,0 z m 270,412 c 0,-30 -11,-51 -33,-63 -21,-12 -54,-17 -98,-17 l -139,0 0,168 142,0 c 85,0 128,-30 128,-88 z"
       id="path10"
       inkscape:connector-curvature="0"
       style="fill:#000000;fill-rule:nonzero" /><path
       class="fil1"
       d="m 7201,1677 c -564,-128 -17,-838 342,-406 133,160 105,404 -36,544 -415,413 -1392,-24 -1740,-113 -819,-208 -941,10 -1262,15 -273,-41 -330,-121 -702,-100 -823,46 -1129,431 -1868,313 -488,-78 -604,-632 -218,-794 520,-219 622,666 68,455 58,16 120,97 230,63 331,-101 256,-610 -166,-606 -482,5 -595,636 -161,881 403,227 1534,256 2084,192 540,-63 621,-115 738,-117 132,-1 187,30 623,109 588,108 1627,70 2167,-89 426,-126 590,-668 160,-896 -514,-271 -823,581 -259,549 z"
       id="path12"
       inkscape:connector-curvature="0"
       style="fill:#000000" /></g></svg>