<?xml version="1.0" standalone="no"?>
<!DOCTYPE svg PUBLIC "-//W3C//DTD SVG 20010904//EN"
 "http://www.w3.org/TR/2001/REC-SVG-20010904/DTD/svg10.dtd">
<svg version="1.0" xmlns="http://www.w3.org/2000/svg"
 width="260.000000pt" height="260.000000pt" viewBox="0 0 260.000000 260.000000"
 preserveAspectRatio="xMidYMid meet">
<metadata>
Created by potrace 1.11, written by Peter Selinger 2001-2013
</metadata>
<g transform="translate(0.000000,260.000000) scale(0.100000,-0.100000)"
fill="#000000" stroke="none">
<path d="M383 1700 c-85 -51 -91 -166 -12 -233 103 -89 477 -121 790 -68 l125
21 103 -20 c113 -22 189 -31 301 -34 105 -3 359 16 379 28 3 2 23 7 44 10 128
20 204 141 147 234 -59 96 -188 95 -226 -3 -19 -50 -7 -91 31 -105 40 -15 54
-11 22 6 -55 30 -55 90 -1 133 40 31 86 28 123 -10 72 -71 45 -173 -56 -216
-72 -29 -179 -19 -352 34 -128 39 -181 53 -226 59 -43 6 -157 6 -180 0 -103
-27 -117 -28 -179 -11 -112 32 -238 20 -430 -42 -137 -44 -271 -55 -340 -29
-87 33 -128 115 -92 184 27 53 99 77 147 51 26 -14 47 -63 41 -95 -6 -32 -45
-58 -77 -52 -28 6 -25 -7 4 -15 32 -8 79 22 91 59 10 28 9 40 -7 71 -30 63
-106 82 -170 43z"/>
<path d="M1100 1249 c0 -14 12 -16 76 -15 42 1 79 -3 82 -9 4 -5 7 -84 7 -175
0 -158 1 -165 20 -168 20 -3 21 1 20 173 0 149 2 175 15 176 8 1 44 2 80 3 61
1 70 4 70 24 0 5 -83 8 -185 8 -164 -1 -185 -3 -185 -17z"/>
<path d="M49 1142 l-46 -3 1 -92 c1 -85 3 -92 21 -92 18 0 20 7 20 75 l0 75
41 3 41 3 -1 -75 c-2 -65 1 -75 17 -80 25 -6 28 8 25 104 l-3 83 -35 1 c-19 1
-56 0 -81 -2z"/>
<path d="M359 1139 c-53 -20 -69 -107 -30 -158 25 -33 115 -40 131 -12 12 23
4 32 -24 23 -31 -11 -51 -9 -70 7 -26 22 -20 43 12 41 15 -1 42 -2 60 -1 28 1
32 4 32 30 0 56 -55 91 -111 70z m61 -33 c0 -2 3 -11 6 -20 5 -13 -2 -16 -35
-16 -42 0 -50 7 -29 28 11 11 58 17 58 8z"/>
<path d="M952 1139 c-38 -14 -21 -34 25 -31 30 3 42 -1 46 -13 7 -17 2 -20
-52 -29 -19 -3 -40 -11 -48 -17 -18 -15 -17 -64 3 -83 18 -19 65 -21 82 -4 8
8 15 8 24 0 25 -20 34 2 34 75 -1 52 -5 77 -17 88 -19 19 -66 26 -97 14z m71
-124 c-7 -21 -38 -36 -57 -29 -26 10 -17 46 14 56 22 8 50 -10 43 -27z"/>
<path d="M599 1118 c-4 -79 22 -114 75 -102 17 3 35 7 40 8 6 0 10 -15 10 -34
1 -28 5 -35 21 -35 19 0 20 7 21 93 0 91 0 92 -24 92 -21 0 -23 -3 -19 -35 5
-36 -5 -51 -38 -56 -32 -5 -45 9 -45 52 0 32 -3 39 -20 39 -14 0 -20 -7 -21
-22z"/>
<path d="M1475 1048 c0 -86 2 -93 20 -93 16 0 20 7 22 33 2 42 5 44 45 46 31
2 33 -1 38 -38 3 -27 10 -40 23 -42 9 -1 17 1 18 4 0 4 1 46 2 95 2 82 1 87
-19 87 -16 0 -21 -6 -22 -30 -1 -42 -6 -47 -46 -42 -24 3 -36 10 -37 21 -1 9
-2 23 -3 31 0 8 -10 16 -21 18 -19 3 -20 -3 -20 -90z"/>
<path d="M1792 1048 c2 -75 6 -92 19 -93 23 -4 29 2 72 68 20 31 39 57 42 57
2 0 3 -27 1 -60 -2 -58 7 -77 31 -62 5 4 10 46 10 95 l1 87 -27 0 c-22 0 -33
-11 -66 -65 -22 -35 -42 -64 -45 -65 -3 0 -3 29 -2 65 3 61 2 65 -18 65 -20 0
-21 -4 -18 -92z"/>
<path d="M2112 1048 c3 -78 6 -92 21 -94 17 -2 20 6 19 61 l0 30 36 -41 c35
-39 82 -66 82 -46 0 4 -16 27 -35 49 -19 23 -35 43 -35 46 0 3 16 22 34 43 33
37 34 39 13 42 -15 3 -32 -9 -59 -40 l-38 -43 3 43 c4 39 2 42 -20 42 -24 0
-24 -1 -21 -92z"/>
<path d="M2370 1126 c0 -11 10 -16 30 -16 l29 0 3 -77 3 -78 59 0 c83 -1 111
24 97 86 -2 12 -53 29 -86 29 -32 0 -34 2 -32 33 2 32 2 32 -50 35 -43 2 -53
0 -53 -12z m181 -107 c11 -19 0 -28 -41 -31 -27 -2 -35 1 -38 16 -2 10 2 22 8
26 19 12 61 5 71 -11z"/>
</g>
</svg>
