<?xml version="1.0" encoding="UTF-8"?>
<!DOCTYPE svg PUBLIC "-//W3C//DTD SVG 1.1//EN" "http://www.w3.org/Graphics/SVG/1.1/DTD/svg11.dtd">
<!-- Creator: CorelDRAW X8 -->
<svg xmlns="http://www.w3.org/2000/svg" xml:space="preserve" width="21.1666mm" height="21.1666mm" version="1.1" style="shape-rendering:geometricPrecision; text-rendering:geometricPrecision; image-rendering:optimizeQuality; fill-rule:evenodd; clip-rule:evenodd"
viewBox="0 0 2117 2117"
 xmlns:xlink="http://www.w3.org/1999/xlink">
 <defs>
  <style type="text/css">
   <![CDATA[
    .str1 {stroke:#000066;stroke-width:42.33}
    .str2 {stroke:#000066;stroke-width:30}
    .str0 {stroke:#000066;stroke-width:20}
    .fil2 {fill:none}
    .fil0 {fill:#000066}
    .fil1 {fill:white}
    .fil3 {fill:#000066;fill-rule:nonzero}
    .fil4 {fill:white;fill-rule:nonzero}
   ]]>
  </style>
 </defs>
 <g id="Слой_x0020_1">
  <metadata id="CorelCorpID_0Corel-Layer"/>
  <circle class="fil0 str0" cx="1058" cy="1058" r="1016"/>
  <circle class="fil1 str0" cx="1058" cy="1058" r="879"/>
  <circle class="fil2 str1" cx="1058" cy="1058" r="853"/>
  <circle class="fil2 str2" cx="1058" cy="1058" r="672"/>
  <path class="fil3" d="M648 1653c-9,10 -18,16 -27,18 -10,1 -17,-1 -24,-6 -4,-4 -7,-9 -9,-14 -1,-6 -1,-12 1,-18 2,-7 6,-13 11,-20 8,-8 16,-14 25,-16 10,-2 18,0 25,6 8,6 11,14 10,25 -1,9 -5,17 -12,25zm-7 -6c7,-7 10,-14 10,-21 0,-7 -2,-12 -6,-16 -5,-4 -11,-6 -18,-4 -6,1 -13,5 -20,13 -5,5 -8,11 -9,16 -2,4 -2,9 -1,13 1,4 3,7 6,10 5,4 10,5 17,4 7,-1 14,-6 21,-15z"/>
  <path class="fil3" d="M547 1629l-29 -30 6 -7 24 24 17 -17 -11 -11c-4,-4 -6,-8 -8,-11 -1,-3 -1,-7 0,-11 1,-4 4,-8 7,-11 4,-3 7,-6 11,-7 4,-1 8,-1 11,0 3,1 7,4 11,8l18 18 -57 55zm44 -55l-12 -12c-3,-3 -6,-5 -9,-5 -3,-1 -7,1 -10,4 -3,3 -4,5 -5,8 0,2 0,4 1,7 1,2 4,5 8,9l8 8 19 -19z"/>
  <polygon class="fil3" points="509,1578 504,1571 559,1528 546,1511 491,1554 486,1547 540,1504 527,1487 472,1530 467,1523 522,1481 518,1476 543,1457 548,1463 530,1476 572,1529 "/>
  <polygon class="fil3" points="499,1459 432,1502 407,1462 415,1457 436,1489 456,1476 436,1446 444,1441 464,1471 486,1457 464,1423 472,1418 "/>
  <path class="fil3" d="M417 1376l-2 -8c9,-3 16,-3 22,0 6,2 11,6 14,12 3,5 4,11 3,16 -1,5 -3,10 -8,15 -4,6 -10,10 -18,14 -8,4 -15,6 -22,7 -6,0 -12,-1 -17,-4 -5,-3 -8,-7 -11,-12 -3,-5 -4,-11 -2,-17 1,-5 5,-11 11,-16l6 7c-9,7 -11,15 -7,23 2,3 5,6 8,8 3,2 8,2 13,2 5,0 10,-2 17,-5 9,-5 16,-11 19,-17 3,-5 3,-11 0,-17 -2,-4 -5,-7 -10,-8 -4,-2 -10,-2 -16,0z"/>
  <polygon class="fil3" points="416,1328 351,1353 359,1372 350,1376 332,1328 341,1325 348,1345 413,1320 "/>
  <path class="fil3" d="M397 1289l-76 22 -6 -24c-2,-4 -2,-8 -1,-11 0,-4 2,-7 5,-9 2,-3 5,-5 9,-6 4,-1 7,-1 10,0 4,1 6,2 9,4 0,-4 2,-7 4,-10 3,-3 6,-5 11,-7 4,-1 9,-1 13,0 4,1 7,2 9,5 3,3 5,7 7,12l6 24zm-46 4l-4 -13c-1,-4 -2,-6 -3,-7 -1,-2 -3,-4 -5,-4 -2,-1 -4,-1 -7,0 -3,1 -5,2 -7,4 -1,1 -2,3 -2,5 0,2 0,5 2,9l3 13 23 -7zm35 -10l-4 -15c-1,-4 -2,-6 -4,-7 -1,-3 -3,-4 -5,-5 -3,0 -6,0 -9,1 -3,1 -5,2 -6,4 -2,1 -3,3 -3,6 -1,2 0,5 1,9l4 15 26 -8z"/>
  <path class="fil3" d="M337 1237c-13,2 -24,1 -32,-4 -8,-4 -13,-11 -14,-20 -1,-5 0,-11 2,-16 2,-5 6,-9 12,-13 5,-4 12,-7 21,-8 11,-2 21,-1 29,3 9,4 15,11 16,20 2,10 -1,18 -8,25 -7,7 -15,11 -26,13zm-1 -9c10,-2 17,-5 21,-10 5,-6 6,-11 5,-17 -1,-6 -4,-11 -10,-14 -6,-4 -15,-4 -25,-2 -7,1 -12,3 -17,6 -4,2 -7,5 -9,9 -1,4 -2,8 -1,12 1,6 4,11 10,14 6,3 15,4 26,2z"/>
  <path class="fil3" d="M321 1086l2 -9c9,2 16,5 20,9 5,4 8,10 8,17 1,6 -1,11 -3,15 -3,5 -7,9 -13,12 -7,3 -14,5 -23,6 -9,0 -16,-1 -22,-3 -6,-2 -11,-6 -15,-10 -3,-4 -5,-9 -5,-15 -1,-6 1,-12 4,-17 4,-4 10,-8 17,-10l3 8c-11,4 -16,10 -15,18 0,5 1,8 4,11 2,3 6,6 11,7 4,2 10,2 17,2 11,-1 19,-4 24,-8 5,-4 8,-9 7,-15 0,-5 -2,-9 -6,-12 -3,-3 -8,-5 -15,-6z"/>
  <path class="fil3" d="M304 1037c-13,-1 -23,-5 -30,-12 -7,-6 -10,-14 -9,-22 0,-6 2,-11 6,-16 3,-4 8,-7 15,-10 6,-2 13,-3 22,-2 11,1 21,4 28,10 7,6 11,14 10,23 0,10 -5,17 -14,23 -8,4 -17,6 -28,6zm1 -9c10,0 18,-1 23,-5 6,-4 9,-9 9,-15 1,-6 -2,-12 -7,-16 -5,-5 -13,-8 -23,-8 -7,-1 -13,0 -18,2 -5,1 -8,3 -11,6 -2,4 -4,7 -4,11 -1,7 2,12 7,17 5,4 13,7 24,8z"/>
  <polygon class="fil3" points="271,950 278,911 287,913 282,943 350,955 349,963 "/>
  <path class="fil3" d="M358 912l-77 -17 6 -24c1,-6 2,-10 4,-12 2,-3 5,-6 9,-7 5,-1 9,-1 14,0 7,1 13,4 16,9 4,4 4,11 2,20l-3 16 31 7 -2 8zm-38 -17l3 -17c2,-5 1,-9 0,-12 -2,-3 -5,-5 -10,-6 -3,0 -6,0 -8,0 -3,1 -5,2 -6,4 -1,1 -2,4 -3,8l-4 16 28 7z"/>
  <path class="fil3" d="M372 857l-67 -49 3 -9 83 1 -3 9 -25 0 -9 25 21 15 -3 8zm-25 -28l7 -21 -23 0c-7,-1 -12,-1 -17,-1 5,2 9,5 13,8l20 14z"/>
  <polygon class="fil3" points="395,791 323,759 326,751 356,764 369,734 340,720 343,713 415,745 412,752 378,737 364,768 398,783 "/>
  <polygon class="fil3" points="355,689 359,682 413,713 376,652 380,645 448,684 445,691 391,660 427,721 423,728 "/>
  <path class="fil3" d="M484 632l-5 7 -26 -18c-2,8 -4,14 -7,19 -3,4 -6,6 -10,8 -4,1 -8,1 -12,0 -4,-1 -9,-4 -14,-8l-19 -13 5 -7 18 13c6,4 12,6 15,6 4,0 7,-1 10,-5 3,-5 6,-11 7,-18l-32 -22 5 -7 65 45z"/>
  <polygon class="fil3" points="495,617 435,566 466,530 473,536 448,565 466,581 489,554 496,560 473,587 493,605 519,575 526,581 "/>
  <polygon class="fil3" points="536,569 481,512 487,506 509,530 534,506 511,483 517,477 572,534 566,540 540,513 516,536 542,563 "/>
  <polygon class="fil3" points="585,522 536,459 543,454 563,480 590,459 570,433 576,428 625,490 618,496 595,466 569,487 592,516 "/>
  <path class="fil3" d="M616 447c-8,-11 -11,-21 -10,-30 1,-10 5,-17 13,-22 5,-3 10,-4 15,-4 6,0 12,2 17,6 6,3 11,9 16,16 6,10 9,19 9,28 -1,10 -5,18 -13,23 -8,5 -17,6 -26,2 -8,-3 -16,-10 -21,-19zm7 -4c5,8 11,13 18,15 6,2 12,2 17,-2 6,-3 8,-8 9,-15 1,-7 -2,-15 -8,-23 -3,-6 -7,-11 -12,-14 -4,-2 -8,-4 -12,-4 -4,0 -8,1 -11,3 -6,3 -9,9 -9,15 -1,7 2,15 8,25z"/>
  <path class="fil3" d="M665 368l7 -4 28 56 2 -71 8 -4 36 70 -7 4 -28 -56 -3 71 -8 4 -35 -70zm21 -33l5 -2c2,4 2,8 1,11 -1,3 -3,5 -6,7 -3,2 -6,2 -10,1 -3,-1 -6,-4 -8,-7l5 -3c3,4 6,5 10,3 2,-1 3,-2 4,-4 0,-1 0,-3 -1,-6z"/>
  <path class="fil3" d="M769 363c-5,-13 -6,-23 -3,-32 3,-9 8,-15 16,-18 6,-2 11,-3 17,-1 5,1 10,4 15,9 5,4 9,11 12,19 4,11 5,20 3,29 -3,10 -9,16 -17,20 -9,3 -18,2 -26,-4 -8,-5 -14,-12 -17,-22zm8 -3c3,9 8,15 14,19 6,3 12,4 17,1 6,-2 10,-6 12,-13 2,-6 1,-15 -2,-24 -3,-7 -6,-12 -10,-16 -3,-3 -7,-5 -11,-7 -4,-1 -8,0 -11,1 -6,2 -10,7 -12,13 -2,7 -1,15 3,26z"/>
  <polygon class="fil3" points="870,369 851,302 830,308 828,299 877,285 880,294 859,300 878,366 "/>
  <path class="fil3" d="M910 359l-14 -78 24 -4c5,-1 9,-1 12,0 3,1 6,3 8,6 3,3 4,6 5,10 1,4 0,7 -1,10 -1,3 -3,6 -5,8 4,1 7,3 10,6 3,3 4,6 5,11 1,5 1,9 0,13 -2,4 -4,7 -7,9 -3,2 -7,4 -13,5l-24 4zm1 -46l13 -3c4,-1 7,-1 8,-2 2,-1 3,-3 4,-5 1,-2 1,-4 1,-7 -1,-3 -2,-5 -3,-7 -1,-1 -3,-2 -5,-3 -2,0 -5,0 -10,1l-13 2 5 24zm6 35l16 -2c3,-1 6,-2 7,-3 3,-1 4,-3 5,-5 1,-3 1,-5 1,-8 -1,-3 -2,-6 -4,-8 -1,-1 -3,-3 -5,-3 -2,-1 -6,-1 -10,0l-15 3 5 26z"/>
  <polygon class="fil3" points="973,348 968,270 1014,266 1015,276 977,278 979,302 1014,300 1015,309 979,312 981,338 1021,336 1021,345 "/>
  <polygon class="fil3" points="1053,343 1051,274 1030,274 1029,265 1080,263 1081,273 1059,273 1062,343 "/>
  <path class="fil3" d="M1143 320l8 3c-2,9 -6,15 -11,19 -5,4 -11,6 -18,6 -6,-1 -11,-2 -15,-6 -4,-3 -7,-8 -9,-14 -3,-7 -4,-15 -3,-24 1,-8 3,-15 6,-21 3,-6 7,-10 12,-13 4,-3 10,-4 15,-4 7,1 12,3 16,7 4,5 7,11 8,18l-8 2c-2,-11 -8,-17 -16,-18 -5,0 -8,1 -12,3 -3,2 -6,5 -8,10 -2,4 -4,10 -4,17 -1,11 0,19 4,25 3,5 8,8 14,9 5,0 9,-1 13,-4 3,-3 6,-8 8,-15z"/>
  <polygon class="fil3" points="1179,354 1192,285 1171,282 1172,273 1223,281 1221,291 1200,287 1188,355 "/>
  <path class="fil3" d="M1221 361l21 -75 24 6c4,2 8,4 10,6 3,2 4,5 5,9 1,3 1,7 0,11 -1,3 -3,6 -5,8 -3,3 -5,4 -9,5 4,3 6,6 7,9 1,4 1,8 0,13 -2,5 -4,8 -6,11 -3,3 -7,5 -10,6 -4,0 -8,0 -14,-2l-23 -7zm20 -41l14 4c3,1 6,1 8,1 2,0 4,-1 5,-2 2,-1 3,-4 4,-7 1,-2 1,-5 1,-7 -1,-2 -2,-4 -4,-5 -1,-1 -4,-2 -9,-3l-12 -4 -7 23zm-10 35l16 4c3,1 6,2 8,2 2,-1 4,-2 6,-3 2,-2 3,-4 4,-8 1,-2 1,-5 1,-7 -1,-3 -2,-5 -4,-6 -2,-1 -5,-3 -9,-4l-14 -4 -8 26z"/>
  <polygon class="fil3" points="1282,378 1312,305 1355,323 1352,331 1316,317 1307,340 1340,353 1337,362 1304,348 1294,373 1330,388 1327,397 "/>
  <polygon class="fil3" points="1341,402 1373,330 1381,334 1368,363 1399,377 1412,347 1420,351 1388,423 1380,419 1395,385 1364,372 1349,406 "/>
  <polygon class="fil3" points="1403,432 1442,364 1450,368 1434,396 1463,413 1479,385 1486,389 1447,457 1440,453 1458,421 1429,404 1410,436 "/>
  <path class="fil3" d="M1482 435c8,-10 16,-17 25,-19 9,-3 17,-1 24,4 5,3 8,8 10,13 2,5 2,11 1,18 -2,6 -5,13 -10,20 -7,10 -14,16 -23,18 -9,4 -18,2 -26,-3 -7,-6 -11,-14 -11,-24 0,-9 3,-18 10,-27zm7 6c-6,8 -9,15 -8,22 0,7 3,12 8,16 5,3 10,4 17,2 7,-2 13,-7 19,-15 4,-6 7,-11 8,-17 1,-4 1,-8 0,-12 -1,-4 -4,-8 -7,-10 -5,-4 -11,-5 -18,-3 -6,2 -13,8 -19,17z"/>
  <path class="fil3" d="M1573 524l4 8c-8,5 -15,7 -21,7 -7,0 -12,-2 -17,-7 -4,-4 -7,-9 -8,-14 -1,-5 0,-11 2,-17 3,-7 7,-13 13,-20 6,-6 12,-10 18,-13 6,-2 12,-3 18,-2 5,1 10,4 14,8 5,4 7,9 8,15 0,6 -2,12 -6,19l-7 -4c5,-10 5,-18 -1,-24 -3,-3 -7,-5 -11,-5 -3,-1 -8,0 -12,2 -5,2 -10,5 -15,10 -7,8 -11,15 -12,22 -1,6 0,12 5,16 3,3 7,5 12,5 5,0 10,-2 16,-6z"/>
  <polygon class="fil3" points="1581,571 1631,523 1616,508 1623,501 1659,538 1652,545 1637,529 1587,578 "/>
  <path class="fil3" d="M1671 554l5 7 -26 21 9 12c4,5 6,8 7,12 1,3 1,7 -1,11 -1,4 -4,7 -8,10 -5,4 -10,6 -16,6 -6,0 -11,-3 -17,-11l-15 -19 62 -49zm-50 50l10 13c3,4 6,6 9,7 4,0 7,-1 11,-4 3,-2 5,-4 5,-7 1,-2 1,-5 0,-7 -1,-2 -3,-5 -6,-10l-7 -9 -22 17z"/>
  <path class="fil3" d="M1713 610l5 7 -30 19 7 11c9,-6 19,-8 27,-7 9,1 15,4 19,11 5,7 6,15 3,23 -3,9 -10,17 -20,24 -11,7 -21,10 -30,9 -9,0 -16,-4 -21,-12 -5,-7 -6,-14 -3,-22 3,-8 9,-15 17,-21l-7 -11 -28 19 -5 -7 66 -43zm-17 46c-9,6 -14,12 -17,18 -2,6 -2,12 1,17 4,5 9,8 16,8 6,0 14,-3 23,-9 8,-5 14,-11 16,-17 3,-6 2,-12 -1,-17 -3,-5 -8,-8 -15,-8 -7,0 -15,3 -23,8z"/>
  <path class="fil3" d="M1742 740c12,-5 23,-6 32,-4 9,3 15,9 18,17 2,5 3,11 2,16 -2,6 -5,11 -9,16 -5,5 -11,9 -19,12 -11,4 -21,5 -30,3 -9,-2 -16,-8 -20,-17 -3,-9 -2,-17 3,-26 5,-7 13,-13 23,-17zm3 8c-9,4 -15,8 -19,14 -3,6 -4,12 -1,18 2,6 7,10 13,12 7,1 15,0 25,-4 6,-2 11,-5 15,-9 4,-3 6,-7 7,-11 1,-4 0,-8 -1,-12 -3,-6 -7,-10 -14,-12 -6,-1 -15,0 -25,4z"/>
  <polygon class="fil3" points="1808,799 1821,836 1812,839 1802,810 1737,833 1734,825 "/>
  <path class="fil3" d="M1749 874l77 -17 5 23c1,6 2,10 1,13 0,4 -2,8 -5,11 -3,3 -7,5 -12,6 -7,1 -13,1 -19,-2 -5,-2 -8,-8 -10,-16l-4 -16 -31 7 -2 -9zm42 -1l4 17c1,5 3,8 6,10 3,2 6,2 11,1 3,0 6,-2 8,-3 1,-2 3,-4 3,-5 0,-2 0,-5 -1,-10l-4 -16 -27 6z"/>
  <polygon class="fil3" points="1763,936 1841,926 1842,935 1810,939 1814,972 1846,968 1848,977 1769,986 1768,978 1805,973 1801,940 1764,944 "/>
  <path class="fil3" d="M1773 1056l0 -8 61 -2c-2,-2 -4,-4 -7,-7 -2,-3 -4,-6 -5,-9l9 0c3,4 6,8 10,11 4,3 7,6 11,7l0 5 -79 3z"/>
  <path class="fil3" d="M1783 1122l-9 -1 3 -42c3,0 7,1 12,4 4,3 10,7 15,14 7,8 13,13 17,16 3,3 7,4 11,4 4,0 7,0 10,-3 2,-2 4,-5 4,-8 0,-4 -1,-7 -4,-9 -2,-3 -6,-4 -11,-5l2 -8c7,1 13,4 16,8 4,4 5,9 5,15 -1,6 -3,11 -8,14 -4,3 -10,5 -15,4 -5,0 -10,-2 -14,-5 -5,-3 -11,-8 -18,-16 -4,-5 -7,-8 -9,-10 -2,-1 -3,-3 -5,-4l-2 32z"/>
  <path class="fil3" d="M1795 1135l1 8c-11,1 -16,4 -17,11 -1,4 0,7 3,10 3,3 7,5 12,5 4,1 8,0 11,-2 3,-2 5,-5 5,-8 0,-2 0,-4 0,-6l8 2 0 1c-1,4 0,7 2,10 2,3 5,4 9,5 4,0 7,0 10,-2 2,-2 4,-4 4,-7 0,-3 -1,-6 -3,-8 -2,-3 -5,-4 -10,-6l3 -7c6,2 11,4 14,8 3,4 4,9 4,14 -1,5 -3,9 -8,12 -4,3 -9,5 -15,4 -3,-1 -6,-2 -9,-4 -2,-2 -4,-4 -6,-7 -1,3 -2,5 -4,6 -2,1 -4,3 -7,3 -3,1 -6,1 -9,1 -8,-1 -13,-4 -17,-9 -4,-5 -6,-10 -5,-16 0,-5 3,-10 7,-13 5,-3 11,-5 17,-5z"/>
  <path class="fil3" d="M1768 1211l18 4 6 -27 9 2 43 40 -1 7 -50 -12 -2 9 -9 -2 2 -9 -18 -4 2 -8zm27 6l34 8 -30 -27 -4 19z"/>
  <path class="fil3" d="M1783 1244l-1 8c-5,0 -9,0 -12,1 -3,2 -5,4 -6,7 -1,4 0,7 3,11 2,3 6,6 12,8 6,1 10,1 14,0 4,-2 6,-5 7,-9 1,-2 1,-4 0,-7 -1,-2 -2,-4 -4,-6l3 -7 37 17 -9 31 -8 -2 7 -25 -20 -9c2,4 3,9 2,13 -2,5 -5,9 -11,11 -5,3 -12,3 -19,1 -8,-2 -14,-6 -18,-11 -4,-6 -5,-12 -3,-18 1,-5 4,-9 9,-12 5,-3 11,-3 17,-2z"/>
  <path class="fil3" d="M1793 1350l3 -7c4,1 7,1 9,0 3,-1 5,-3 6,-6 2,-4 1,-9 -3,-13 -4,-4 -10,-8 -19,-12 2,3 4,6 4,9 1,4 1,7 -1,10 -1,4 -5,8 -11,9 -6,2 -12,2 -19,-1 -5,-2 -9,-5 -13,-8 -3,-4 -5,-7 -6,-11 -1,-3 0,-7 1,-10 3,-6 7,-10 14,-12 7,-2 17,0 30,5 14,6 23,12 28,19 4,6 5,12 3,19 -2,4 -5,7 -10,9 -4,2 -9,2 -16,0zm-19 -42c-5,-3 -10,-3 -14,-2 -4,1 -7,4 -9,7 -1,3 0,6 2,10 2,3 6,6 11,8 5,2 10,3 13,1 4,-1 7,-3 8,-6 1,-3 1,-7 -1,-10 -2,-4 -5,-6 -10,-8z"/>
  <path class="fil3" d="M1798 1368l8 3 -17 39 -7 -3c-5,-9 -12,-19 -22,-28 -10,-10 -20,-18 -32,-23l3 -8c6,3 13,7 20,12 7,6 14,12 20,18 6,6 10,13 14,19l13 -29z"/>
  <path class="fil3" d="M1749 1420c3,-2 6,-3 9,-3 3,0 6,1 10,3 5,3 8,7 10,12 1,5 1,9 -2,14 -3,5 -7,8 -12,9 -5,1 -10,0 -15,-3 -4,-2 -6,-4 -8,-7 -1,-3 -2,-6 -1,-9 -4,2 -7,4 -11,4 -4,0 -9,-1 -13,-4 -6,-3 -10,-8 -12,-14 -2,-5 -1,-11 2,-16 3,-5 8,-9 13,-10 6,-1 12,0 19,3 4,3 7,6 9,10 2,3 3,7 2,11zm15 7c-4,-2 -7,-3 -10,-2 -3,1 -5,2 -7,5 -1,2 -1,5 0,8 1,3 3,5 6,7 3,2 6,2 9,2 3,-1 6,-2 7,-5 1,-2 2,-5 1,-8 -1,-3 -3,-5 -6,-7zm-30 -20c-5,-3 -9,-4 -13,-3 -3,1 -6,3 -8,6 -2,3 -2,6 -1,10 1,4 4,7 8,9 4,3 8,3 12,3 4,-1 7,-3 9,-6 2,-3 2,-7 1,-10 -2,-4 -4,-7 -8,-9z"/>
  <path class="fil3" d="M1707 1445l-3 7c-8,-3 -13,-3 -16,2 -2,3 -2,5 -2,8 0,3 2,6 5,10 3,4 7,7 12,11l2 1c-2,-4 -3,-7 -3,-10 0,-3 1,-6 3,-9 3,-4 7,-7 13,-7 6,-1 12,1 19,5 7,5 11,10 13,16 2,6 1,11 -2,16 -2,3 -5,5 -9,7 -4,1 -9,1 -15,0 -5,-1 -12,-4 -20,-10 -9,-5 -15,-11 -19,-16 -4,-5 -6,-9 -7,-14 0,-4 1,-8 3,-12 3,-4 6,-7 11,-8 5,-1 10,0 15,3zm12 47c5,3 9,4 13,4 4,-1 7,-2 9,-5 2,-3 2,-6 1,-10 -2,-5 -5,-8 -10,-11 -4,-3 -8,-4 -12,-4 -4,1 -7,2 -9,5 -2,3 -2,7 -1,10 1,4 4,7 9,11z"/>
  <path class="fil3" d="M1698 1503c10,8 17,16 20,23 3,7 3,13 -2,18 -3,5 -9,7 -15,7 -8,-1 -18,-6 -29,-15 -11,-8 -18,-15 -21,-22 -3,-7 -2,-14 2,-19 4,-5 9,-7 16,-7 8,1 17,6 29,15zm-5 6c-10,-8 -18,-12 -23,-13 -5,0 -9,1 -11,4 -2,3 -2,6 0,11 2,5 8,11 18,19 10,8 17,12 22,13 5,0 9,-1 11,-4 2,-3 3,-6 1,-11 -2,-5 -8,-11 -18,-19z"/>
  <path class="fil3" d="M1616 1544l5 -6 47 40c-1,-3 -1,-6 0,-10 0,-4 0,-7 1,-10l7 7c-1,5 -1,9 0,14 0,5 1,9 3,13l-3 4 -60 -52z"/>
  <path class="fil3" d="M1579 1596l-7 -6 31 -30c3,2 5,6 6,11 2,5 3,12 3,21 -1,11 0,18 1,23 1,4 3,8 5,10 3,3 6,5 10,5 3,0 6,-1 9,-3 2,-3 3,-6 3,-10 0,-3 -2,-7 -5,-11l6 -5c5,6 8,12 7,17 0,6 -2,10 -6,15 -5,4 -10,6 -16,5 -5,-1 -10,-3 -14,-7 -3,-4 -6,-8 -7,-13 -1,-6 -2,-14 -2,-24 0,-7 0,-11 0,-14 0,-2 -1,-4 -1,-6l-23 22z"/>
  <path class="fil3" d="M1580 1614l-5 6c-8,-7 -14,-9 -19,-4 -3,2 -5,5 -5,9 0,4 1,8 4,12 3,3 6,6 10,6 4,1 7,0 10,-2 1,-1 2,-2 3,-4l5 7 -1 1c-3,2 -5,5 -6,8 0,4 1,7 4,10 2,3 4,5 7,5 3,1 6,0 8,-2 3,-1 4,-4 4,-7 0,-3 -1,-7 -3,-11l7 -3c4,5 5,11 4,16 0,5 -3,9 -7,12 -4,3 -8,4 -14,3 -5,0 -9,-3 -13,-8 -2,-3 -4,-6 -4,-9 -1,-3 0,-6 1,-9 -2,1 -5,1 -7,1 -3,0 -5,-1 -7,-2 -3,-2 -5,-4 -7,-7 -5,-6 -7,-12 -6,-18 0,-6 3,-11 8,-15 4,-3 9,-4 14,-4 6,1 11,4 15,9z"/>
  <path class="fil3" d="M782 1740l30 12 -3 8 -22 -9 -17 46 -9 -4 21 -53zm28 72l3 -11 11 4 -4 10 -10 -3zm80 22l13 -78 15 3 9 58c1,6 2,9 2,12 1,-3 3,-6 6,-12l28 -51 14 3 -14 78 -9 -2 11 -65 -34 61 -9 -2 -11 -69 -12 66 -9 -2zm110 -12c0,-11 4,-19 9,-24 6,-4 12,-6 19,-6 7,0 14,3 19,8 5,5 7,13 7,22 0,7 -1,13 -4,17 -2,4 -5,8 -10,10 -4,2 -9,3 -13,3 -9,0 -15,-3 -20,-8 -4,-6 -7,-13 -7,-22zm10 0c0,7 1,13 5,16 3,4 7,6 12,6 4,0 8,-2 12,-5 3,-4 5,-10 5,-17 0,-7 -1,-12 -4,-16 -4,-4 -8,-6 -12,-6 -5,0 -9,2 -13,5 -3,4 -5,9 -5,17zm113 5l10 1c-1,7 -3,12 -7,16 -4,4 -9,6 -15,7 -8,0 -15,-2 -20,-6 -5,-5 -8,-12 -8,-22 -1,-6 0,-11 1,-16 2,-5 5,-9 9,-11 4,-3 9,-4 13,-5 7,0 12,1 16,4 4,3 7,7 8,13l-9 2c-1,-4 -3,-7 -5,-9 -2,-1 -6,-2 -9,-2 -4,1 -9,3 -11,6 -3,4 -4,10 -4,17 1,8 3,13 6,16 4,4 7,5 12,5 4,-1 7,-2 9,-4 2,-3 4,-6 4,-12zm32 -39l10 -1 4 24c3,-1 6,-1 7,-3 1,-1 2,-5 3,-11 1,-5 2,-8 3,-10 1,-1 2,-2 3,-3 2,-1 5,-1 8,-2l2 0 1 7 -3 1c-2,0 -4,1 -4,1 -1,1 -1,4 -2,8 -1,4 -2,7 -3,9 -1,1 -3,3 -5,4 4,1 9,4 14,10l14 15 -11 2 -13 -15c-3,-3 -5,-6 -7,-7 -1,0 -4,-1 -6,0l5 26 -10 2 -10 -57zm67 -12l22 -5c6,-1 10,-2 12,-2 3,1 6,2 8,4 3,2 4,4 5,7 1,3 1,6 0,8 -1,2 -2,4 -4,6 3,0 5,2 8,3 2,2 4,5 5,8 0,6 -1,10 -3,13 -4,4 -8,6 -15,8l-25 6 -13 -56zm16 21l9 -2c5,-2 7,-2 8,-3 2,-1 3,-2 4,-3 1,-2 1,-3 0,-5 0,-4 -2,-5 -4,-6 -2,-1 -6,0 -11,1l-10 3 4 15zm5 25l12 -4c6,-1 9,-2 11,-4 2,-2 2,-4 2,-7 -1,-2 -2,-3 -3,-5 -2,-1 -3,-1 -6,-1 -1,0 -4,0 -8,1l-12 3 4 17zm102 -32c-2,4 -5,8 -7,10 -3,2 -6,4 -9,5 -7,3 -11,3 -16,2 -4,-2 -7,-5 -9,-9 -1,-3 -1,-6 -1,-8 1,-3 2,-5 3,-7 1,-3 3,-4 6,-6 1,-1 3,-2 7,-4 7,-4 12,-7 15,-10 -1,-1 -1,-2 -1,-2 -2,-4 -3,-6 -6,-7 -3,-1 -7,-1 -11,1 -4,2 -8,4 -9,6 -1,2 -2,5 -1,10l-10 2c0,-4 0,-8 1,-11 1,-3 3,-6 6,-8 3,-3 6,-5 11,-7 5,-1 8,-2 12,-2 3,0 6,0 8,1 2,1 4,3 5,5 1,1 2,4 4,8l5 12c3,8 5,14 6,16 1,2 3,4 5,5l-9 4c-2,-1 -4,-4 -5,-6zm-8 -19c-3,2 -8,5 -14,8 -4,3 -6,4 -7,6 -1,1 -2,2 -2,4 -1,1 -1,3 0,4 1,3 3,5 5,5 2,1 6,1 9,0 3,-2 6,-3 9,-6 2,-3 3,-6 3,-9 0,-2 -1,-6 -2,-9l-1 -3z"/>
  <path class="fil3" d="M670 1714c0,-4 -1,-8 -2,-11 -2,-6 -3,-9 -3,-11 0,-3 1,-5 2,-7 2,-1 3,-2 5,-2 2,0 3,1 5,2 1,2 2,4 2,7 0,2 -1,5 -3,10 -1,4 -2,8 -2,12 3,-2 5,-4 8,-7 3,-4 6,-7 8,-8 2,-1 3,-2 5,-2 2,0 4,1 5,2 1,2 2,3 2,5 0,2 -1,3 -3,5 -2,2 -6,3 -13,5 -5,1 -8,2 -11,3 3,1 7,2 11,3 6,1 10,3 12,5 2,1 3,3 3,5 0,2 0,3 -1,5 -2,1 -3,1 -5,1 -1,0 -3,0 -5,-1 -2,-2 -5,-4 -8,-8 -2,-3 -5,-5 -8,-7 0,3 0,6 2,10 2,6 3,10 3,13 0,2 -1,4 -2,5 -2,1 -3,2 -5,2 -2,0 -3,-1 -5,-2 -1,-1 -2,-3 -2,-5 0,-3 1,-6 2,-10 1,-3 2,-6 3,-7 0,-2 0,-4 0,-6 -3,2 -6,4 -8,7 -4,4 -7,7 -9,8 -1,1 -3,1 -4,1 -2,0 -3,0 -5,-2 -1,-1 -2,-2 -2,-4 0,-1 1,-2 2,-4 1,-1 3,-3 5,-4 1,0 5,-1 10,-2 3,-1 6,-2 10,-3 -3,-2 -7,-3 -11,-4 -6,-1 -11,-2 -12,-3 -2,-2 -4,-4 -4,-7 0,-1 1,-3 2,-4 1,-1 3,-2 4,-2 2,0 4,1 6,2 2,1 4,3 7,7 3,3 6,6 9,8z"/>
  <path class="fil3" d="M1446 1712c0,-4 -1,-8 -2,-11 -2,-6 -3,-9 -3,-11 0,-3 1,-5 2,-7 2,-1 3,-2 5,-2 2,0 3,1 4,2 2,2 2,4 2,7 0,2 0,5 -2,10 -1,4 -2,8 -2,12 3,-2 5,-4 8,-7 3,-4 6,-7 8,-8 1,-1 3,-2 5,-2 2,0 3,1 5,2 1,1 1,3 1,5 0,2 -1,3 -2,5 -2,1 -6,3 -14,5 -4,0 -7,2 -10,3 3,1 6,2 10,3 7,1 11,3 13,4 2,2 3,4 3,6 0,2 0,3 -2,4 -1,2 -2,2 -4,2 -2,0 -3,0 -5,-1 -2,-2 -5,-4 -8,-8 -2,-3 -5,-5 -8,-7 0,3 0,6 1,10 2,6 3,10 3,12 0,3 0,4 -2,6 -1,1 -2,2 -4,2 -2,0 -4,-1 -5,-2 -1,-1 -2,-3 -2,-6 0,-2 1,-5 2,-9 1,-4 2,-6 2,-7 1,-2 1,-4 1,-6 -3,2 -6,4 -8,7 -4,4 -7,7 -9,8 -1,1 -3,1 -4,1 -2,0 -4,0 -5,-2 -1,-1 -2,-2 -2,-4 0,-1 1,-2 2,-4 1,-1 3,-3 5,-4 1,0 4,-1 10,-2 3,-1 6,-2 9,-3 -3,-2 -6,-3 -10,-4 -7,-1 -11,-2 -12,-3 -3,-2 -4,-4 -4,-7 0,-1 1,-3 2,-4 1,-1 3,-2 4,-2 2,0 4,1 6,2 2,1 4,3 7,7 3,3 6,6 9,8z"/>
  <path class="fil3" d="M451 1058l32 86 -18 0 -41 -86 42 -86 19 0 -34 86zm49 0l33 86 -19 0 -39 -86 41 -86 19 0 -35 86z"/>
  <path class="fil3" d="M1664 1058l-33 -86 18 0 41 86 -42 86 -19 0 35 -86zm-50 0l-33 -86 19 0 40 86 -41 86 -20 0 35 -86z"/>
  <path class="fil3" d="M584 968l16 0 0 79c7,0 12,-2 15,-6 3,-4 7,-14 12,-31 3,-11 6,-20 8,-25 3,-4 6,-9 10,-12 4,-3 9,-5 13,-5 7,0 10,0 10,0l0 21c-1,0 -2,0 -3,0 -2,0 -3,0 -3,0 -6,0 -9,2 -12,5 -3,4 -6,12 -9,24 -4,15 -8,25 -11,29 -2,4 -6,7 -10,9 8,3 16,14 23,32l25 60 -20 0 -20 -48c-6,-14 -10,-23 -14,-28 -4,-5 -9,-8 -15,-8l0 84 -17 0 2 -180z"/>
  <path id="1" class="fil3" d="M675 1061c1,-30 6,-53 17,-70 11,-17 25,-26 43,-26 11,0 21,4 30,12 9,8 16,19 20,33 5,15 7,31 7,49 0,18 -3,34 -8,49 -5,14 -12,25 -21,32 -10,8 -19,11 -30,11 -12,0 -22,-4 -31,-12 -9,-8 -16,-19 -20,-33 -5,-15 -7,-29 -7,-45zm17 0c0,22 4,39 11,51 8,13 18,19 30,19 12,0 22,-6 30,-19 8,-12 12,-30 12,-53 1,-15 -1,-28 -4,-39 -4,-11 -8,-19 -15,-25 -6,-6 -13,-9 -21,-9 -12,0 -22,6 -30,17 -8,12 -13,31 -13,58z"/>
  <path id="2" class="fil3" d="M812 1148l1 -180 25 0 27 128c3,12 5,20 6,26 1,-6 4,-16 7,-28l30 -126 22 0 -2 180 -15 0 1 -150 -37 150 -15 0 -33 -153 -2 153 -15 0z"/>
  <polygon id="3" class="fil3" points="956,968 1052,968 1050,1148 1034,1148 1035,989 972,989 970,1148 954,1148 "/>
  <path id="4" class="fil3" d="M1063 1148l49 -180 17 0 49 180 -19 0 -13 -54 -52 0 -14 54 -17 0zm36 -74l42 0 -13 -49c-3,-16 -6,-28 -8,-38 -2,12 -4,23 -7,35l-14 52z"/>
  <polygon id="5" class="fil3" points="1191,1148 1193,968 1209,968 1208,1043 1271,1043 1272,968 1288,968 1287,1148 1270,1148 1271,1064 1208,1064 1207,1148 "/>
  <polygon id="6" class="fil3" points="1315,968 1330,968 1329,1111 1395,968 1411,968 1409,1148 1395,1148 1396,1006 1330,1148 1314,1148 "/>
  <path id="7" class="fil3" d="M1533 1148l1 -180 -54 0c-11,0 -19,2 -25,5 -5,3 -10,9 -14,17 -3,8 -5,18 -5,27 0,13 3,24 8,33 6,8 14,14 26,16 -4,3 -7,6 -10,9 -5,7 -9,15 -13,24l-22 49 20 0 17 -37c5,-11 9,-19 12,-25 3,-6 6,-10 8,-12 2,-2 5,-4 7,-5 2,0 5,-1 9,-1l19 0 -1 80 17 0zm-16 -100l-34 0c-8,0 -14,-1 -18,-4 -4,-2 -7,-5 -9,-10 -2,-5 -3,-11 -3,-17 0,-8 2,-15 6,-21 5,-5 11,-8 20,-8l39 0 -1 60z"/>
  <path class="fil4" d="M997 1945l-13 77 -26 -4c-9,-2 -15,-3 -18,-4 -4,-2 -8,-6 -10,-10 -2,-4 -3,-10 -2,-16 1,-5 3,-9 5,-12 2,-2 5,-5 8,-6 3,-1 6,-2 9,-2 4,0 9,0 16,1l10 2 6 -29 15 3zm-27 61l4 -22 -8 -1c-7,-1 -11,-1 -13,-1 -2,0 -4,1 -6,3 -1,1 -2,3 -3,6 0,2 0,5 2,7 1,2 3,4 5,5 2,0 6,1 12,2l7 1z"/>
  <path class="fil4" d="M923 1968c-2,8 -5,14 -9,19 -3,3 -6,6 -10,8 -4,2 -8,4 -12,4 -5,1 -11,0 -17,-2 -11,-3 -19,-9 -24,-18 -4,-9 -5,-19 -1,-32 3,-12 9,-20 18,-25 8,-5 18,-6 29,-3 12,3 20,9 24,18 5,9 6,19 2,31zm-16 -4c3,-8 3,-15 0,-21 -3,-6 -7,-9 -13,-11 -6,-2 -12,-1 -17,2 -5,4 -9,10 -12,18 -2,9 -2,16 0,21 3,6 7,9 14,11 6,2 12,1 17,-2 5,-3 9,-9 11,-18z"/>
  <path class="fil4" d="M777 1912l-12 -10c5,-7 11,-12 18,-14 7,-1 14,-1 22,2 9,4 16,11 20,20 3,9 3,20 -2,31 -5,12 -12,20 -21,25 -9,4 -18,4 -29,0 -9,-4 -15,-10 -18,-17 -2,-5 -3,-10 -2,-17l16 3c-1,4 0,8 2,11 1,3 4,6 8,7 6,3 11,2 16,0 5,-3 9,-8 12,-17 4,-9 5,-17 3,-22 -1,-5 -5,-9 -10,-11 -4,-1 -8,-2 -12,0 -4,1 -7,4 -11,9z"/>
  <path class="fil4" d="M695 1875l-12 -11c6,-7 12,-11 19,-12 7,-1 14,0 22,4 9,5 15,12 18,21 3,10 1,20 -4,31 -6,12 -14,19 -23,23 -10,3 -19,2 -29,-3 -9,-4 -14,-10 -17,-18 -2,-5 -2,-10 -1,-17l16 4c-1,4 -1,8 1,11 1,4 4,6 8,8 5,3 10,3 15,1 5,-2 10,-7 14,-15 5,-9 7,-16 5,-22 -1,-5 -4,-9 -9,-12 -4,-2 -8,-2 -12,-1 -4,1 -8,4 -11,8z"/>
  <polygon class="fil4" points="629,1899 617,1891 646,1847 590,1873 577,1865 620,1799 632,1807 604,1850 659,1824 672,1833 "/>
  <path class="fil4" d="M549 1848l-12 -9 32 -41 -57 22 -13 -10 49 -62 12 9 -32 40 57 -20 12 9 -48 62zm-45 -9l-5 -5c3,-3 7,-5 11,-6 4,0 8,1 12,4 3,3 6,7 6,11 1,4 0,8 -3,12l-6 -5c2,-2 2,-4 2,-6 -1,-2 -2,-4 -4,-6 -3,-1 -5,-2 -7,-2 -2,0 -4,1 -6,3z"/>
  <path class="fil4" d="M469 1720l-7 -15c7,-4 15,-6 21,-5 7,1 14,4 20,10 7,7 11,16 11,25 0,10 -5,20 -13,29 -9,9 -19,14 -29,14 -10,1 -19,-3 -26,-10 -7,-7 -11,-14 -11,-23 -1,-5 1,-10 4,-16l14 8c-2,4 -3,8 -3,11 1,4 2,8 6,11 4,4 9,5 14,5 6,-1 12,-4 18,-11 7,-7 11,-14 11,-19 1,-6 -1,-10 -5,-14 -4,-3 -7,-5 -11,-5 -4,0 -9,1 -14,5z"/>
  <path class="fil4" d="M391 1726l-10 -12 25 -22c-2,-2 -5,-3 -6,-3 -2,0 -7,1 -14,3 -8,4 -14,4 -18,3 -4,-1 -8,-4 -13,-10 0,0 -1,-1 -1,-1l8 -8 2 2c2,2 4,4 5,4 2,1 4,1 6,1 2,-1 5,-2 10,-4 3,-1 5,-2 7,-2 2,0 5,0 8,1 -1,-3 -2,-7 -1,-11 1,-3 2,-8 5,-14l9 -22 12 14 -9 21c0,0 0,0 -1,1 0,1 0,2 -1,4 -2,4 -2,7 -2,9 0,1 1,3 2,5l27 -22 10 12 -60 51z"/>
  <path class="fil4" d="M364 1562l9 14 -10 16 18 26 18 -5 10 14 -82 20 -10 -14 47 -71zm-9 42l-18 26 30 -9 -12 -17z"/>
  <path class="fil4" d="M327 1511l-28 18 2 3c3,4 5,7 8,7 2,1 8,2 17,2l20 0 11 16 -18 1c-8,0 -13,0 -16,-1 -3,-1 -7,-2 -10,-4 3,7 4,13 2,18 -1,5 -5,9 -9,12 -4,2 -8,4 -13,4 -4,0 -8,-2 -11,-4 -4,-3 -7,-8 -12,-14l-18 -28 66 -43 9 13zm-55 36l7 10c3,6 6,9 7,10 1,2 3,3 5,3 2,1 4,0 7,-1 2,-2 3,-4 4,-6 1,-2 1,-4 0,-6 -1,-2 -3,-6 -7,-11l-6 -10 -17 11z"/>
  <path class="fil4" d="M263 1411l8 -4 7 15 -9 3c5,12 6,21 3,29 -3,7 -9,12 -17,15 -8,4 -16,5 -23,2 -7,-3 -14,-10 -19,-21l-7 4 -7 -15 8 -3c-5,-11 -6,-21 -3,-28 3,-7 9,-12 17,-16 8,-3 15,-4 23,-1 7,2 13,9 19,20zm-12 6c-2,-4 -4,-7 -6,-9 -3,-3 -6,-4 -8,-4 -3,0 -6,1 -10,3 -11,4 -13,12 -8,24l32 -14zm6 14l-32 14c3,6 6,10 10,12 4,1 9,1 14,-2 11,-5 13,-13 8,-24z"/>
  <polygon class="fil4" points="238,1358 163,1384 144,1329 157,1324 171,1364 187,1359 174,1321 187,1317 200,1354 220,1347 206,1306 218,1301 "/>
  <path class="fil4" d="M130 1294l-12 -53 64 -14 -2 -7 30 -7 3 13 -17 4 11 48 17 -4 3 13 -30 7 -1 -7c-8,-1 -16,-1 -25,-1 -9,1 -20,4 -33,7l-8 1zm9 -17c24,-6 41,-8 53,-6l-7 -29 -51 12 5 23z"/>
  <polygon class="fil4" points="182,1200 104,1210 97,1152 110,1150 115,1193 133,1190 128,1151 141,1150 146,1189 167,1186 162,1143 175,1141 "/>
  <path class="fil4" d="M165 1122l-79 1 0 -25c-1,-10 0,-16 0,-19 2,-5 4,-9 8,-12 4,-3 9,-5 15,-5 5,0 9,1 12,3 4,1 6,4 8,6 2,3 4,6 4,8 1,4 2,10 2,17l0 10 30 0 0 16zm-66 -15l22 0 0 -9c0,-6 0,-11 -1,-13 -1,-2 -2,-3 -4,-5 -2,-1 -4,-1 -6,-1 -3,0 -5,1 -7,2 -2,2 -3,4 -4,7 0,2 0,6 0,11l0 8z"/>
  <path class="fil4" d="M164 981l-1 18 -18 6 0 32 17 7 0 16 -78 -32 0 -16 80 -31zm-32 29l-30 10 29 12 1 -22z"/>
  <polygon class="fil4" points="89,957 90,941 156,949 159,919 94,911 96,895 161,903 162,896 192,900 191,913 174,911 167,967 "/>
  <polygon class="fil4" points="102,864 106,849 157,861 113,818 116,803 193,820 190,835 140,823 183,866 179,881 "/>
  <path class="fil4" d="M215 755l-31 -11 -1 3c-2,5 -2,9 -1,11 0,3 3,7 9,15l12 16 -6 18 -11 -14c-5,-6 -8,-10 -9,-13 -2,-3 -3,-6 -4,-10 -3,7 -8,11 -12,12 -5,2 -10,2 -15,0 -5,-1 -9,-4 -11,-7 -3,-4 -4,-7 -4,-12 0,-4 1,-10 4,-17l11 -32 74 26 -5 15zm-62 -21l-4 11c-2,6 -3,10 -4,12 0,2 0,4 1,6 2,2 3,3 6,4 2,1 5,1 7,0 2,0 3,-2 4,-4 1,-1 3,-5 5,-12l4 -11 -19 -6z"/>
  <path class="fil4" d="M370 484l-59 -51 16 -20c7,-7 11,-11 14,-13 4,-3 8,-4 13,-4 5,1 10,3 15,7 3,3 6,7 7,10 1,3 2,7 1,10 0,3 -1,6 -2,9 -2,3 -5,8 -10,13l-7 8 23 19 -11 12zm-39 -55l17 15 6 -6c4,-5 6,-9 7,-11 1,-2 1,-4 0,-6 0,-2 -1,-4 -3,-5 -2,-2 -5,-3 -7,-3 -3,0 -5,1 -7,2 -1,2 -4,4 -8,9l-5 5z"/>
  <path class="fil4" d="M393 401c-6,-6 -10,-11 -12,-17 -1,-4 -2,-8 -2,-13 0,-4 1,-8 3,-12 2,-5 5,-9 10,-14 8,-8 17,-12 27,-12 10,1 20,6 29,15 8,9 13,19 13,29 0,10 -4,19 -13,27 -8,8 -17,12 -27,11 -10,0 -19,-5 -28,-14zm11 -12c6,7 13,10 19,11 6,0 11,-2 16,-6 4,-5 7,-10 6,-16 0,-6 -3,-12 -10,-19 -6,-7 -12,-10 -18,-10 -6,-1 -11,1 -16,6 -5,4 -7,10 -7,16 1,6 4,12 10,18z"/>
  <path class="fil4" d="M512 312l15 -6c3,8 4,16 3,22 -2,7 -6,13 -13,18 -8,7 -17,9 -27,8 -10,-2 -18,-7 -26,-17 -8,-10 -12,-21 -11,-31 1,-9 6,-18 14,-25 8,-6 16,-8 24,-7 5,0 10,2 16,6l-11 13c-3,-3 -6,-4 -10,-4 -4,0 -7,1 -11,4 -4,3 -7,8 -7,13 0,6 2,12 8,20 6,8 12,12 17,13 6,1 11,0 15,-3 4,-3 6,-6 7,-10 0,-4 -1,-9 -3,-14z"/>
  <path class="fil4" d="M585 263l15 -4c3,8 3,16 1,22 -3,7 -7,12 -14,17 -9,5 -18,7 -28,5 -9,-3 -18,-9 -24,-19 -7,-11 -10,-22 -8,-31 1,-10 7,-18 16,-24 8,-5 16,-7 24,-6 5,1 10,4 15,8l-11 12c-3,-3 -7,-5 -10,-5 -4,-1 -8,0 -11,3 -5,3 -8,7 -9,13 -1,5 2,12 7,20 5,8 11,13 16,15 5,1 10,1 15,-3 4,-2 6,-5 7,-9 1,-4 1,-9 -1,-14z"/>
  <polygon class="fil4" points="595,200 609,193 632,240 637,179 651,172 687,242 674,249 650,203 645,263 631,270 "/>
  <path class="fil4" d="M679 160l14 -6 19 49 11 -60 15 -6 28 74 -14 5 -18 -48 -12 60 -14 5 -29 -73zm31 -33l7 -3c2,5 1,9 0,13 -2,3 -5,6 -10,8 -4,1 -8,1 -12,0 -4,-2 -7,-5 -9,-9l7 -3c1,3 2,4 4,5 2,0 5,0 7,-1 3,-1 5,-2 6,-4 1,-2 1,-4 0,-6z"/>
  <path class="fil4" d="M828 162l16 0c0,9 -2,17 -6,22 -4,6 -10,10 -18,12 -11,3 -20,2 -28,-3 -9,-5 -15,-14 -18,-26 -4,-12 -3,-23 1,-32 5,-9 12,-15 23,-18 9,-2 18,-2 25,2 4,2 8,6 12,12l-14 8c-2,-4 -5,-7 -9,-8 -3,-1 -7,-2 -11,0 -6,1 -10,4 -12,10 -2,5 -2,12 0,21 3,9 7,16 11,19 5,3 10,3 16,2 4,-1 7,-4 9,-7 2,-3 3,-8 3,-14z"/>
  <path class="fil4" d="M856 104l16 -2 5 33c4,-1 6,-3 7,-4 1,-2 2,-6 4,-13 1,-9 4,-15 7,-18 2,-2 8,-4 15,-6 0,0 1,0 2,0l2 12 -2 0c-3,1 -6,1 -7,2 -1,1 -2,3 -3,5 -1,1 -1,5 -2,10 -1,3 -1,6 -2,8 -1,2 -3,4 -5,6 3,0 7,2 10,4 2,3 6,7 9,12l15 19 -19 3 -13 -18c0,0 0,-1 -1,-2 0,0 -1,-1 -2,-3 -3,-3 -5,-5 -7,-6 -1,-1 -3,-1 -6,-1l6 34 -15 3 -14 -78z"/>
  <path class="fil4" d="M1012 164l-17 1 -8 -17 -32 2 -5 18 -17 1 25 -80 17 -1 37 76zm-31 -29l-13 -29 -9 30 22 -1z"/>
  <path class="fil4" d="M1073 162l0 -33 -3 0c-5,1 -9,1 -11,3 -2,1 -5,6 -10,14l-12 17 -19 0 10 -15c3,-6 6,-11 9,-13 2,-3 5,-5 8,-7 -7,-1 -13,-4 -16,-7 -3,-4 -5,-9 -5,-15 0,-4 1,-9 3,-12 3,-4 6,-7 10,-8 4,-1 10,-2 17,-2l34 -1 1 79 -16 0zm-1 -65l-12 0c-7,0 -11,0 -13,1 -2,0 -3,1 -5,3 -1,1 -2,3 -2,6 0,3 1,5 2,7 2,1 4,2 6,3 2,0 6,0 13,0l12 0 -1 -20z"/>
  <path class="fil4" d="M1189 162l-1 9 -15 -1 1 -10c-13,-2 -21,-6 -25,-12 -5,-6 -7,-14 -5,-22 1,-9 4,-16 10,-21 6,-5 15,-7 27,-6l1 -8 16 2 -1 8c12,2 21,6 25,12 5,7 6,14 5,23 -1,9 -4,15 -10,20 -6,5 -15,7 -28,6zm2 -13c4,1 8,0 11,-1 3,-1 5,-2 7,-4 1,-3 3,-6 3,-11 1,-11 -4,-17 -17,-19l-4 35zm-15 -2l4 -35c-7,-1 -12,0 -15,3 -3,3 -5,7 -6,13 -2,11 4,18 17,19z"/>
  <polygon class="fil4" points="1240,181 1258,104 1315,117 1312,130 1270,120 1266,137 1305,146 1302,159 1263,150 1259,171 1302,181 1299,194 "/>
  <path class="fil4" d="M1349 128l51 17 -21 63 6 2 -9 29 -13 -5 6 -16 -47 -16 -6 16 -12 -4 9 -29 7 2c5,-5 10,-12 14,-20 3,-8 8,-18 12,-31l3 -8zm10 17c-8,23 -16,39 -23,48l28 9 17 -49 -22 -8z"/>
  <polygon class="fil4" points="1397,228 1429,156 1482,180 1477,192 1438,175 1431,191 1467,207 1461,219 1425,203 1416,222 1457,240 1451,252 "/>
  <path class="fil4" d="M1469 261l39 -68 22 12c9,5 14,9 16,11 3,3 5,7 6,12 1,5 -1,10 -4,16 -2,4 -5,7 -8,9 -3,2 -7,3 -10,4 -3,0 -6,0 -9,-1 -4,-2 -9,-4 -15,-8l-9 -5 -15 26 -13 -8zm46 -49l-11 20 7 4c6,3 10,5 12,5 2,1 4,0 6,-1 2,-1 4,-2 5,-4 1,-3 2,-5 1,-8 0,-2 -2,-4 -4,-6 -1,-1 -4,-3 -9,-6l-7 -4z"/>
  <path class="fil4" d="M1588 334l-14 -9 4 -19 -27 -17 -15 12 -14 -10 69 -49 14 9 -17 83zm-7 -42l7 -30 -25 19 18 11z"/>
  <polygon class="fil4" points="1648,282 1660,292 1620,343 1644,362 1684,311 1697,320 1657,372 1662,376 1643,400 1632,392 1643,378 1599,344 "/>
  <polygon class="fil4" points="1720,343 1731,353 1694,391 1753,375 1765,386 1710,443 1699,432 1735,395 1676,410 1665,399 "/>
  <path class="fil4" d="M1756 495l25 -22 -3 -2c-3,-4 -6,-6 -8,-6 -3,-1 -8,-1 -17,0l-21 3 -12 -14 18 -3c7,-1 12,-2 15,-2 4,0 7,1 11,2 -4,-6 -6,-12 -5,-17 1,-5 3,-9 8,-13 3,-3 7,-5 12,-5 4,-1 8,0 12,2 3,2 7,6 13,12l22 25 -60 52 -10 -12zm49 -43l-8 -9c-4,-5 -7,-8 -9,-9 -1,-2 -3,-2 -5,-2 -2,0 -4,1 -6,2 -2,2 -4,4 -4,6 0,2 0,4 1,6 1,2 4,5 8,10l8 9 15 -13z"/>
  <path class="fil4" d="M1896 739l75 -25 8 24c3,9 5,15 5,18 0,5 -1,9 -4,13 -2,4 -7,8 -13,10 -4,1 -8,2 -12,1 -4,-1 -7,-2 -9,-4 -3,-2 -5,-4 -7,-6 -2,-4 -4,-9 -6,-16l-4 -9 -28 9 -5 -15zm67 -6l-21 7 3 8c2,6 4,10 5,12 2,2 3,3 6,3 2,1 4,1 6,0 3,-1 5,-2 6,-5 1,-2 1,-4 1,-7 0,-2 -1,-5 -3,-11l-3 -7z"/>
  <path class="fil4" d="M1958 801c8,-2 15,-2 21,-1 4,1 8,2 12,5 4,2 7,5 9,8 3,4 5,10 7,16 2,11 1,21 -4,30 -6,8 -15,14 -27,16 -13,3 -23,2 -32,-3 -8,-5 -14,-13 -17,-25 -2,-11 -1,-21 5,-29 5,-9 14,-14 26,-17zm4 16c-8,2 -15,5 -18,10 -4,6 -5,11 -3,17 1,7 5,11 10,14 5,3 12,3 21,1 9,-2 15,-5 19,-10 3,-5 4,-10 3,-17 -2,-6 -5,-11 -10,-14 -6,-3 -13,-3 -22,-1z"/>
  <path class="fil4" d="M1976 949l-3 16c-8,-2 -15,-5 -20,-10 -5,-5 -8,-11 -9,-20 -1,-10 1,-19 8,-27 6,-7 15,-12 28,-13 13,-2 23,0 31,6 8,6 13,14 14,25 1,10 -1,18 -5,25 -3,4 -8,7 -14,9l-6 -15c4,-1 7,-4 9,-7 2,-3 3,-7 3,-11 -1,-6 -4,-10 -8,-13 -5,-3 -12,-4 -21,-3 -10,1 -17,4 -21,8 -4,4 -5,9 -4,14 0,5 2,8 5,11 3,2 7,4 13,5z"/>
  <path class="fil4" d="M1983 1036l-4 16c-9,-2 -16,-6 -20,-11 -4,-6 -7,-13 -7,-21 0,-11 3,-19 10,-26 7,-7 16,-11 29,-12 13,0 23,3 31,10 7,6 11,15 12,26 0,10 -3,17 -8,24 -3,3 -8,6 -14,8l-5 -15c4,-1 7,-3 10,-7 2,-3 3,-6 3,-10 0,-6 -3,-11 -7,-14 -4,-4 -11,-5 -20,-5 -10,0 -17,2 -22,6 -4,4 -6,8 -5,14 0,4 1,8 4,11 3,3 7,5 13,6z"/>
  <polygon class="fil4" points="2035,1075 2035,1090 1982,1088 2034,1122 2033,1138 1954,1135 1955,1120 2006,1122 1956,1088 1956,1072 "/>
  <path class="fil4" d="M2037 1167l-2 15 -52 -7 48 38 -2 16 -78 -10 2 -14 51 6 -47 -38 1 -16 79 10zm14 43l-1 7c-4,-1 -8,-3 -10,-6 -3,-4 -4,-8 -3,-12 0,-5 2,-9 5,-12 4,-2 8,-3 12,-3l0 7c-3,0 -5,1 -7,2 -1,1 -2,4 -2,6 -1,3 0,6 1,7 1,2 3,3 5,4z"/>
  <path class="fil4" d="M1970 1296l-8 14c-8,-4 -13,-9 -16,-15 -3,-7 -3,-14 -1,-22 2,-11 7,-18 16,-23 8,-5 19,-6 31,-3 13,3 22,8 27,16 6,9 7,18 5,29 -2,9 -7,16 -14,21 -4,3 -9,4 -16,5l0 -17c4,0 8,-1 11,-3 3,-3 5,-6 6,-10 1,-6 0,-11 -3,-15 -3,-5 -10,-8 -19,-10 -9,-2 -17,-2 -22,0 -5,3 -8,7 -9,13 -1,4 -1,8 1,11 2,4 6,7 11,9z"/>
  <path class="fil4" d="M2011 1349l-5 15 -32 -11c-1,4 -1,6 0,8 1,2 4,5 10,10 7,5 11,10 12,14 0,4 0,9 -3,16 0,1 0,1 0,2l-11 -3 0 -3c1,-3 2,-5 1,-7 0,-1 -1,-3 -2,-4 -1,-2 -4,-4 -8,-8 -2,-1 -4,-3 -6,-5 -1,-1 -2,-4 -2,-7 -3,3 -5,5 -9,6 -4,1 -9,2 -15,3l-24 3 6 -17 23 -3c0,0 1,0 2,0 0,0 1,0 4,-1 4,0 7,-1 8,-2 2,-1 3,-3 4,-5l-33 -11 5 -15 75 25z"/>
  <path class="fil4" d="M1894 1457l7 -16 19 1 13 -29 -14 -13 7 -16 59 61 -6 15 -85 -3zm40 -14l31 2 -22 -22 -9 20z"/>
  <path class="fil4" d="M1871 1510l29 17 1 -3c3,-4 4,-8 4,-10 -1,-3 -3,-8 -7,-16l-9 -19 10 -16 8 16c4,6 6,11 7,14 1,3 1,7 1,11 5,-6 10,-9 15,-10 5,-1 10,0 15,3 4,2 7,5 9,9 2,4 2,8 2,12 -1,4 -4,10 -8,17l-16 29 -69 -40 8 -14zm57 33l6 -11c3,-5 5,-9 6,-11 1,-1 1,-3 0,-5 -1,-3 -2,-4 -4,-6 -3,-1 -5,-1 -7,-1 -2,0 -4,1 -5,3 -2,2 -4,5 -8,11l-5 10 17 10z"/>
  <path class="fil4" d="M1832 1612l-7 -6 10 -12 7 5c8,-9 16,-14 24,-15 7,-1 15,2 21,7 8,6 12,12 13,20 1,8 -2,16 -9,26l6 5 -10 12 -6 -4c-8,9 -16,14 -24,15 -7,0 -15,-2 -22,-7 -6,-6 -11,-12 -12,-20 -1,-7 2,-16 9,-26zm11 8c-3,3 -5,6 -5,9 -1,4 -1,7 0,9 1,2 4,5 7,8 9,7 18,5 25,-5l-27 -21zm9 -13l28 22c4,-5 6,-10 5,-14 0,-4 -3,-8 -7,-12 -10,-7 -18,-6 -26,4z"/>
  <polygon class="fil4" points="1785,1647 1842,1702 1801,1744 1792,1735 1821,1704 1809,1692 1781,1720 1772,1711 1799,1683 1784,1668 1753,1699 1744,1690 "/>
  <path class="fil4" d="M1786 1769l-41 35 -43 -49 -6 4 -20 -23 10 -8 12 13 37 -33 -11 -13 10 -8 20 22 -5 5c2,7 5,14 10,22 5,7 12,16 21,26l6 7zm-20 0c-16,-19 -26,-33 -30,-44l-22 19 34 40 18 -15z"/>
  <polygon class="fil4" points="1677,1761 1722,1825 1674,1859 1666,1848 1701,1823 1691,1809 1659,1832 1651,1821 1684,1798 1671,1781 1635,1806 1628,1795 "/>
  <path class="fil4" d="M1613 1806l43 66 -21 14c-8,5 -14,9 -17,10 -4,1 -9,1 -13,-1 -5,-1 -9,-5 -12,-10 -3,-4 -5,-8 -5,-12 0,-4 0,-7 1,-10 2,-3 3,-6 5,-8 3,-2 8,-6 14,-10l8 -5 -16 -25 13 -9zm23 64l-12 -19 -8 5c-5,3 -8,6 -10,8 -1,2 -2,3 -2,6 0,2 1,4 2,6 2,2 4,4 6,4 3,1 5,1 7,0 2,-1 6,-3 10,-6l7 -4z"/>
  <path class="fil4" d="M1500 1875l15 -8 15 13 28 -15 -3 -19 16 -7 8 84 -15 8 -64 -56zm40 14l23 21 -3 -31 -20 10z"/>
  <polygon class="fil4" points="1520,1954 1505,1960 1481,1899 1452,1910 1477,1971 1462,1977 1437,1916 1431,1919 1420,1890 1432,1886 1439,1901 1491,1880 "/>
  <polygon class="fil4" points="1433,1987 1419,1991 1405,1940 1388,2000 1373,2004 1351,1928 1366,1924 1380,1974 1396,1915 1412,1911 "/>
  <path class="fil4" d="M1285 1942l6 32 3 -1c5,0 8,-2 10,-4 2,-1 5,-6 8,-15l9 -19 18 -3 -6 17c-3,7 -5,11 -7,14 -2,3 -4,6 -7,8 7,0 13,2 17,5 3,3 6,8 7,13 1,5 0,9 -1,13 -2,4 -5,7 -9,9 -3,2 -9,4 -17,5l-33 6 -13 -78 15 -2zm12 64l12 -2c6,-1 10,-2 12,-3 2,0 3,-1 5,-3 1,-2 1,-4 1,-7 -1,-3 -2,-5 -4,-6 -1,-2 -3,-2 -5,-2 -3,0 -7,0 -13,1l-12 2 4 20z"/>
 </g>
</svg>
