<?xml version="1.0" encoding="UTF-8"?>
<!DOCTYPE svg PUBLIC "-//W3C//DTD SVG 1.1//EN" "http://www.w3.org/Graphics/SVG/1.1/DTD/svg11.dtd">
<!-- Creator: CorelDRAW X8 -->
<svg xmlns="http://www.w3.org/2000/svg" xml:space="preserve" width="21.1666mm" height="21.1666mm" version="1.1" style="shape-rendering:geometricPrecision; text-rendering:geometricPrecision; image-rendering:optimizeQuality; fill-rule:evenodd; clip-rule:evenodd"
viewBox="0 0 2117 2117"
 xmlns:xlink="http://www.w3.org/1999/xlink">
 <defs>
  <style type="text/css">
   <![CDATA[
    .str1 {stroke:#000066;stroke-width:16.93}
    .str0 {stroke:#000066;stroke-width:135.46}
    .str2 {stroke:#000066;stroke-width:25.39}
    .str3 {stroke:#000066;stroke-width:7.62}
    .str4 {stroke:white;stroke-width:7.62}
    .fil0 {fill:none}
    .fil3 {fill:none;fill-rule:nonzero}
    .fil2 {fill:#000066;fill-rule:nonzero}
    .fil1 {fill:white;fill-rule:nonzero}
   ]]>
  </style>
 </defs>
 <g id="Слой_x0020_1">
  <metadata id="CorelCorpID_0Corel-Layer"/>
  <g id="_965044592">
   <ellipse class="fil0 str0" cx="1053" cy="1058" rx="977" ry="982"/>
   <ellipse class="fil0 str1" cx="1053" cy="1058" rx="884" ry="888"/>
   <ellipse class="fil0 str2" cx="1053" cy="1058" rx="679" ry="682"/>
   <polygon class="fil1" points="493,212 505,204 533,246 531,187 544,179 585,242 573,250 546,209 547,267 534,275 "/>
   <polygon class="fil1" points="609,231 574,163 588,156 602,183 628,169 615,142 628,135 663,203 649,210 634,181 607,194 622,224 "/>
   <polygon class="fil1" points="687,193 660,122 674,116 685,144 713,133 702,105 717,100 744,171 730,177 718,146 690,156 702,187 "/>
   <path class="fil1" d="M830 145l-14 4 -15 -53c-4,6 -9,12 -15,16l-4 -13c3,-2 7,-6 10,-10 3,-5 5,-9 6,-14l11 -4 21 74z"/>
   <path class="fil1" d="M907 116l3 14 -50 8c-1,-5 0,-10 2,-15 2,-5 6,-12 13,-21 5,-7 8,-12 10,-14 1,-3 1,-6 1,-9 -1,-4 -2,-6 -4,-7 -2,-2 -4,-2 -7,-2 -3,1 -6,2 -7,4 -2,2 -2,6 -2,10l-14 1c-1,-8 1,-14 5,-18 4,-5 9,-7 16,-9 7,-1 13,0 18,3 5,4 8,8 9,14 1,3 1,7 0,10 -1,3 -2,7 -4,11 -1,2 -4,6 -8,11 -3,5 -6,8 -7,10 -1,1 -2,3 -2,4l28 -5z"/>
   <path class="fil1" d="M927 107l14 -4c1,4 2,6 4,8 3,2 5,2 8,2 3,0 5,-2 7,-4 2,-3 2,-6 2,-10 -1,-4 -2,-6 -4,-8 -2,-2 -5,-3 -8,-2 -1,0 -4,0 -6,1l0 -12c4,0 7,-1 9,-3 2,-2 2,-5 2,-8 0,-2 -1,-4 -3,-6 -2,-1 -4,-1 -6,-1 -3,0 -5,1 -6,3 -2,2 -3,5 -3,8l-13 -1c0,-4 1,-8 3,-11 1,-3 3,-5 7,-7 3,-2 6,-4 11,-4 7,-1 13,1 17,5 4,3 7,7 7,11 1,7 -2,13 -9,18 5,0 9,2 11,5 3,3 5,6 6,11 1,7 -1,13 -5,18 -5,5 -10,8 -18,9 -6,1 -12,0 -17,-4 -5,-3 -8,-8 -10,-14z"/>
   <path class="fil1" d="M1028 119l-1 -15 -31 0 0 -12 32 -49 12 -1 1 49 10 0 0 12 -9 1 0 15 -14 0zm-1 -28l0 -26 -17 26 17 0z"/>
   <path class="fil1" d="M1069 99l14 -1c1,3 2,6 4,8 2,2 4,3 7,3 3,0 6,-1 8,-4 2,-2 3,-6 3,-11 0,-5 -1,-8 -3,-10 -2,-3 -5,-4 -8,-4 -4,0 -8,2 -11,5l-12 -2 8 -39 39 1 -1 13 -27 0 -3 13c4,-2 7,-3 10,-3 7,0 12,3 17,8 4,4 6,11 6,18 0,6 -2,12 -6,17 -5,6 -12,10 -20,10 -7,-1 -13,-3 -17,-6 -5,-4 -7,-9 -8,-16z"/>
   <path class="fil1" d="M1194 71l-14 0c0,-3 -1,-6 -2,-7 -1,-2 -3,-3 -5,-3 -4,0 -6,1 -9,3 -2,3 -4,8 -6,17 4,-4 9,-5 14,-5 6,1 11,4 15,9 4,5 5,11 4,19 -1,7 -4,13 -9,17 -5,5 -11,6 -18,5 -8,-1 -14,-4 -18,-11 -4,-6 -5,-16 -3,-30 1,-14 5,-24 11,-29 6,-6 13,-8 21,-7 6,1 10,3 13,7 4,3 6,8 6,15zm-37 27c0,5 0,9 2,12 2,2 4,4 7,4 3,1 5,0 7,-2 2,-2 4,-5 4,-10 1,-5 0,-9 -1,-11 -2,-3 -4,-4 -7,-4 -3,-1 -5,0 -8,2 -2,2 -3,5 -4,9z"/>
   <path class="fil1" d="M1217 70l3 -13 49 9 -2 10c-5,3 -10,8 -16,15 -5,7 -10,14 -13,22 -4,8 -6,16 -8,22l-13 -2c2,-10 6,-21 12,-31 6,-10 13,-18 21,-26l-33 -6z"/>
   <path class="fil1" d="M1298 109c-3,-3 -5,-6 -6,-9 -1,-3 -1,-6 0,-10 2,-5 5,-9 10,-11 5,-3 11,-3 18,-1 7,2 12,5 14,10 3,5 4,10 2,15 -1,3 -2,6 -5,8 -3,2 -6,4 -9,4 3,3 6,6 7,10 1,4 1,8 0,12 -2,7 -6,12 -11,14 -6,3 -12,4 -19,2 -7,-2 -12,-5 -15,-10 -4,-6 -5,-12 -3,-19 1,-4 3,-8 6,-10 3,-3 7,-5 11,-5zm7 -14c0,3 0,5 1,7 1,2 3,4 5,5 3,0 5,0 8,-1 2,-1 3,-3 4,-6 1,-2 0,-5 -1,-7 -1,-2 -3,-3 -5,-4 -3,-1 -5,-1 -7,1 -2,1 -4,3 -5,5zm-10 31c-1,4 -1,7 0,10 2,3 4,5 7,6 3,0 6,0 8,-2 2,-1 4,-4 5,-8 1,-3 1,-6 0,-9 -1,-2 -4,-4 -7,-5 -3,-1 -6,-1 -8,1 -3,2 -4,4 -5,7z"/>
   <path class="fil1" d="M1348 148l14 3c-1,3 -1,5 0,7 1,2 3,3 5,4 3,1 6,0 8,-2 3,-2 6,-7 10,-15 -5,3 -10,4 -15,2 -6,-2 -10,-6 -13,-12 -2,-5 -2,-12 0,-19 3,-7 7,-12 13,-15 6,-3 12,-4 18,-1 8,2 13,7 15,14 3,8 2,18 -2,31 -5,13 -10,22 -17,26 -7,4 -14,5 -22,2 -6,-2 -10,-5 -12,-9 -3,-5 -3,-10 -2,-16zm41 -19c2,-5 2,-9 1,-12 -1,-3 -3,-5 -6,-6 -3,-1 -5,-1 -7,1 -3,1 -5,4 -6,9 -2,4 -2,8 -1,11 1,3 3,5 6,6 2,1 5,0 7,-1 3,-2 5,-4 6,-8z"/>
   <path class="fil1" d="M1461 128c6,3 11,7 12,14 2,8 0,18 -6,31 -5,13 -12,22 -19,26 -6,3 -12,3 -19,0 -7,-3 -11,-8 -13,-15 -1,-7 1,-18 6,-31 6,-13 13,-22 20,-25 6,-3 12,-3 19,0zm-5 11c-2,-1 -3,-1 -5,-1 -2,1 -4,2 -6,5 -2,3 -5,8 -9,16 -3,9 -5,14 -6,18 0,3 0,6 0,7 1,2 2,3 4,4 2,0 3,1 5,0 2,0 4,-2 5,-4 3,-3 6,-9 10,-17 3,-8 5,-14 6,-17 0,-4 0,-6 -1,-8 0,-1 -2,-3 -3,-3z"/>
   <path class="fil1" d="M1503 234l-13 -7 25 -49c-7,2 -14,3 -21,1l6 -11c4,0 8,0 14,-1 5,-1 10,-3 14,-7l10 6 -35 68z"/>
   <path class="fil1" d="M1580 266l-7 11 -43 -27c3,-4 7,-8 12,-10 5,-2 13,-4 24,-6 9,-2 14,-3 17,-4 3,-2 5,-4 7,-6 2,-3 2,-5 2,-8 -1,-2 -2,-4 -5,-6 -2,-2 -5,-2 -7,-2 -3,1 -5,3 -8,6l-11 -9c5,-6 10,-9 16,-10 6,0 11,1 17,5 6,4 10,9 12,15 1,6 0,11 -3,16 -2,3 -4,5 -7,7 -3,2 -6,4 -10,5 -3,1 -7,2 -13,3 -7,1 -11,2 -12,2 -2,1 -4,2 -5,2l24 16z"/>
   <path class="fil1" d="M544 1848l12 7 -25 44 52 -29 13 8 -38 66 -12 -7 24 -43 -51 28 -13 -8 38 -66zm41 111l34 -68 14 7 -14 26 27 14 14 -27 13 7 -34 68 -14 -7 15 -30 -27 -13 -15 30 -13 -7zm83 38l27 -71 15 6 -11 28 27 11 11 -28 15 6 -28 71 -14 -6 12 -31 -28 -11 -12 31 -14 -6zm146 48l-14 -3 12 -54c-6,4 -13,6 -20,7l3 -13c4,-1 8,-2 13,-4 5,-3 9,-6 12,-10l11 3 -17 74zm87 4l-3 13 -50 -9c1,-5 4,-9 7,-13 4,-4 10,-9 19,-16 8,-5 13,-8 15,-10 2,-2 4,-5 4,-8 1,-3 1,-6 -1,-8 -1,-2 -3,-3 -6,-4 -4,0 -6,0 -8,2 -3,1 -4,4 -5,8l-14 -4c2,-8 6,-13 11,-15 5,-3 11,-4 18,-3 8,2 13,5 16,10 4,4 5,10 4,16 -1,3 -2,6 -3,9 -2,3 -5,6 -8,8 -2,3 -6,5 -11,9 -6,3 -9,5 -11,6 -1,2 -2,3 -3,4l29 5zm23 -4l15 0c0,4 0,7 2,9 2,2 4,3 7,4 3,0 5,-1 8,-3 2,-2 3,-5 4,-9 0,-3 0,-6 -2,-9 -2,-2 -4,-3 -7,-4 -1,0 -4,0 -6,1l3 -12c4,0 7,0 9,-2 2,-1 4,-4 4,-7 0,-2 0,-4 -2,-6 -1,-2 -3,-3 -5,-3 -3,0 -5,0 -7,2 -2,1 -3,4 -4,7l-13 -4c2,-4 3,-8 6,-10 2,-3 5,-5 8,-6 4,-1 8,-1 12,-1 7,1 12,4 16,9 3,4 4,9 4,13 -1,7 -6,12 -13,15 4,2 7,4 9,8 2,3 3,7 3,12 -1,7 -4,12 -10,16 -5,4 -11,6 -19,5 -6,-1 -12,-4 -16,-8 -4,-5 -6,-10 -6,-17zm100 28l0 -15 -31 -1 1 -12 34 -48 12 0 -1 49 9 0 0 13 -10 -1 0 16 -14 -1zm1 -28l0 -26 -18 26 18 0zm44 9l14 -2c1,3 2,6 4,8 2,2 4,3 7,3 3,0 6,-2 8,-4 2,-3 3,-7 2,-12 0,-4 -1,-8 -3,-10 -2,-2 -5,-3 -8,-3 -4,0 -8,2 -11,5l-12 -1 6 -40 39 -1 1 13 -28 1 -2 13c3,-2 6,-2 10,-3 6,0 12,3 17,8 4,4 7,10 7,18 0,6 -2,12 -5,17 -5,6 -12,10 -21,10 -7,0 -13,-1 -17,-5 -5,-4 -7,-9 -8,-15zm115 -47l-13 3c-1,-3 -2,-5 -4,-6 -1,-1 -3,-1 -6,-1 -3,0 -5,2 -7,5 -2,3 -2,9 -2,17 3,-4 8,-7 13,-8 6,0 11,1 16,5 5,5 8,11 9,18 1,8 -1,14 -5,19 -3,6 -9,9 -16,9 -8,1 -14,-1 -20,-6 -5,-5 -9,-15 -11,-28 -2,-15 0,-25 4,-32 4,-6 11,-10 19,-11 5,-1 10,0 15,3 4,3 7,7 8,13zm-28 36c0,5 2,8 4,10 3,3 5,4 8,3 3,0 5,-1 6,-4 2,-2 2,-5 2,-10 -1,-5 -2,-9 -4,-11 -3,-2 -5,-3 -8,-2 -3,0 -5,2 -7,4 -1,2 -2,6 -1,10zm49 -43l-3 -13 49 -9 2 10c-3,5 -6,11 -9,20 -3,8 -5,16 -5,25 -1,9 -1,17 0,23l-13 3c-2,-10 -2,-21 0,-33 2,-12 6,-22 11,-32l-32 6zm84 4c-4,-1 -8,-2 -10,-4 -2,-3 -4,-5 -5,-8 -2,-6 -1,-11 2,-16 3,-4 8,-7 15,-9 6,-2 12,-2 17,0 5,3 8,7 10,12 1,4 1,7 0,10 -1,3 -3,6 -6,8 4,1 8,2 11,5 3,2 5,5 6,10 2,6 2,12 -1,18 -3,6 -9,10 -16,12 -6,1 -12,1 -18,-1 -6,-3 -10,-8 -12,-15 -1,-4 -1,-8 0,-12 1,-4 3,-7 7,-10zm-1 -15c0,3 2,5 4,6 2,1 4,1 7,0 2,0 4,-2 5,-4 1,-2 2,-4 1,-7 -1,-3 -2,-5 -4,-6 -2,-1 -5,-1 -7,0 -3,0 -5,2 -6,4 -1,2 -1,4 0,7zm7 31c1,4 3,8 6,9 2,2 5,2 8,1 3,0 5,-2 6,-5 1,-3 1,-6 0,-10 -1,-4 -2,-6 -5,-8 -2,-1 -5,-2 -8,-1 -3,1 -6,3 -7,6 -1,3 -1,6 0,8zm59 -11l13 -5c1,2 2,4 4,5 2,1 4,1 6,0 3,-1 5,-3 6,-6 1,-4 1,-10 -2,-18 -2,5 -5,9 -11,10 -5,2 -11,2 -16,-1 -6,-3 -10,-8 -13,-15 -2,-8 -2,-14 1,-20 3,-6 8,-11 15,-13 7,-2 14,-1 20,3 7,4 12,13 17,26 4,13 5,23 2,31 -3,7 -8,12 -16,15 -6,2 -11,2 -15,0 -5,-2 -8,-6 -11,-12zm21 -40c-2,-5 -4,-8 -7,-9 -3,-2 -6,-3 -8,-2 -3,1 -5,3 -6,5 -1,3 0,7 1,11 2,5 4,8 6,9 3,2 6,2 8,1 3,-1 5,-2 6,-5 1,-3 1,-6 0,-10zm44 -47c7,-3 13,-3 19,0 7,4 14,12 20,25 6,14 8,24 6,32 -2,7 -6,11 -13,14 -7,3 -13,3 -20,0 -6,-3 -12,-12 -18,-25 -6,-13 -8,-24 -6,-32 1,-6 6,-11 12,-14zm5 11c-1,1 -3,2 -3,4 -1,1 -1,3 -1,6 1,4 3,11 7,19 3,8 6,13 9,16 2,3 4,4 5,5 2,0 4,0 5,-1 2,0 3,-1 4,-3 0,-2 1,-4 0,-7 -1,-4 -3,-10 -6,-18 -4,-8 -7,-14 -9,-16 -2,-3 -4,-5 -6,-5 -2,-1 -3,-1 -5,0zm104 22l-13 7 -25 -50c-2,7 -6,13 -11,18l-6 -11c2,-3 5,-7 7,-12 3,-5 4,-10 3,-15l11 -5 34 68zm67 -55l7 11 -43 27c-3,-4 -4,-9 -4,-14 0,-6 1,-14 4,-25 2,-8 3,-14 3,-17 0,-3 0,-7 -2,-9 -2,-3 -4,-5 -6,-5 -3,-1 -5,0 -8,2 -2,1 -4,3 -4,6 -1,3 0,6 2,10l-13 6c-3,-7 -4,-13 -2,-19 2,-6 5,-10 11,-14 7,-4 13,-5 18,-4 6,1 11,4 14,9 2,3 3,6 4,9 0,4 0,8 0,12 0,3 -1,7 -3,13 -2,6 -2,10 -3,12 0,2 0,4 0,5l25 -15z"/>
   <path class="fil1" d="M440 1768c-5,5 -11,9 -16,11 -4,1 -8,2 -13,2 -4,0 -8,-1 -11,-2 -5,-2 -10,-5 -14,-10 -8,-8 -11,-17 -11,-27 0,-9 5,-18 14,-27 9,-9 18,-13 27,-13 10,0 19,4 26,12 8,8 12,17 12,27 -1,9 -5,19 -14,27zm-11 -11c6,-6 9,-12 10,-18 0,-6 -2,-11 -6,-16 -4,-4 -9,-6 -15,-6 -6,0 -12,4 -19,10 -6,6 -9,12 -10,17 0,6 2,11 6,16 5,4 10,7 16,6 5,0 12,-3 18,-9z"/>
   <polygon class="fil1" points="321,1719 290,1679 300,1671 322,1699 372,1660 381,1672 "/>
   <path class="fil1" d="M343 1618l-62 44 -14 -20c-6,-8 -9,-13 -10,-16 -1,-4 -1,-8 0,-13 1,-5 5,-9 10,-12 3,-3 7,-4 11,-5 3,0 6,0 9,1 3,1 6,3 8,5 3,2 6,6 10,12l6 8 23 -16 9 12zm-61 24l18 -12 -5 -7c-3,-5 -6,-8 -8,-9 -1,-2 -3,-2 -5,-2 -2,0 -4,0 -6,2 -3,1 -4,3 -4,6 -1,2 -1,4 0,7 1,1 3,5 6,9l4 6z"/>
   <polygon class="fil1" points="296,1553 230,1591 222,1577 248,1562 233,1536 207,1551 199,1538 265,1500 273,1513 244,1530 259,1556 288,1539 "/>
   <polygon class="fil1" points="177,1509 171,1495 217,1475 159,1467 153,1453 222,1422 228,1435 182,1456 240,1464 246,1478 "/>
   <polygon class="fil1" points="133,1425 114,1367 186,1343 191,1357 131,1378 141,1406 200,1385 205,1400 "/>
   <path class="fil1" d="M152 1257l3 15 -53 12c6,4 11,9 15,16l-13 3c-2,-4 -5,-7 -10,-11 -4,-3 -9,-5 -14,-6l-2 -11 74 -18z"/>
   <path class="fil1" d="M121 1181l13 -2 9 50c-5,0 -10,0 -15,-2 -5,-2 -12,-7 -21,-13 -7,-6 -12,-9 -14,-10 -3,-2 -6,-2 -9,-1 -4,0 -6,1 -7,3 -2,2 -2,5 -2,8 1,3 2,5 4,7 3,1 6,2 10,1l1 15c-8,0 -14,-1 -18,-5 -5,-4 -7,-9 -9,-16 -1,-8 0,-14 3,-19 4,-5 8,-8 14,-9 3,0 7,0 10,0 3,1 7,2 11,4 2,2 6,4 11,8 5,4 8,6 10,7 1,1 3,2 4,3l-5 -29z"/>
   <path class="fil1" d="M107 1162l-3 -14c3,-1 6,-2 8,-5 2,-2 2,-4 2,-7 0,-3 -1,-5 -4,-7 -2,-2 -5,-3 -9,-3 -4,1 -7,2 -9,4 -2,2 -2,4 -2,7 0,2 0,4 1,7l-12 -1c0,-4 -1,-7 -3,-9 -2,-2 -4,-3 -7,-2 -3,0 -5,1 -6,2 -2,2 -2,4 -2,7 0,2 1,4 3,6 2,1 4,2 8,3l-2 13c-4,-1 -8,-2 -11,-3 -3,-2 -5,-5 -7,-8 -2,-3 -3,-7 -3,-11 0,-7 1,-13 6,-18 3,-3 7,-6 12,-6 6,0 12,3 17,10 0,-4 2,-8 5,-11 3,-3 7,-4 11,-5 7,0 13,2 18,6 5,5 8,11 8,18 1,7 -1,13 -4,18 -4,4 -9,7 -15,9z"/>
   <path class="fil1" d="M119 1063l-15 0 0 32 -13 0 -48 -32 -1 -13 49 -1 -1 -9 13 0 0 9 16 0 0 14zm-28 1l-26 0 26 17 0 -17z"/>
   <path class="fil1" d="M98 1022l0 -14c3,-1 6,-2 8,-4 2,-1 3,-4 3,-6 0,-3 -1,-6 -3,-8 -2,-3 -6,-4 -11,-4 -5,-1 -8,0 -11,2 -2,2 -3,5 -4,8 0,4 2,8 5,12l-2 11 -39 -10 2 -38 14 1 -2 27 13 3c-2,-3 -2,-7 -2,-10 0,-6 3,-12 8,-16 5,-4 11,-6 19,-5 6,0 12,2 16,6 6,6 9,13 9,22 -1,7 -3,12 -7,16 -4,5 -9,7 -16,7z"/>
   <path class="fil1" d="M72 900l0 14c-3,0 -5,1 -7,2 -1,1 -2,3 -3,5 0,3 1,6 4,8 2,3 8,5 16,7 -4,-5 -5,-9 -5,-15 1,-6 4,-11 9,-14 5,-4 12,-6 19,-5 8,1 13,4 18,9 4,6 5,12 4,19 -1,7 -4,13 -11,18 -6,4 -16,5 -30,3 -14,-1 -23,-5 -29,-11 -5,-6 -7,-13 -6,-21 0,-6 3,-10 6,-14 4,-3 9,-5 15,-5zm28 36c4,1 8,0 11,-1 3,-2 4,-5 5,-7 0,-3 -1,-5 -3,-7 -2,-3 -5,-4 -10,-4 -5,-1 -8,-1 -11,1 -2,2 -4,4 -4,7 0,3 0,5 2,7 2,3 5,4 10,4z"/>
   <path class="fil1" d="M72 875l-13 -3 11 -49 10 2c3,5 8,11 15,16 6,6 13,11 21,15 8,5 15,7 21,9l-3 14c-10,-3 -20,-8 -30,-14 -9,-7 -18,-14 -24,-23l-8 33z"/>
   <path class="fil1" d="M111 799c-2,3 -5,5 -8,6 -3,1 -7,1 -10,0 -5,-2 -9,-5 -12,-10 -2,-5 -2,-11 0,-18 2,-7 5,-11 10,-14 4,-3 9,-4 15,-2 3,1 6,3 8,5 2,3 3,6 4,9 3,-3 6,-6 10,-7 3,-1 7,-1 11,0 7,2 12,6 15,11 3,6 3,12 1,19 -2,7 -5,12 -10,15 -5,4 -12,5 -19,3 -4,-1 -7,-3 -10,-6 -3,-3 -4,-7 -5,-11zm-13 -7c3,1 5,0 7,-1 2,-1 4,-3 4,-5 1,-3 1,-5 0,-7 -1,-2 -3,-4 -6,-5 -3,0 -5,0 -7,1 -2,1 -3,3 -4,5 -1,3 -1,6 0,8 1,2 3,3 6,4zm31 10c4,1 7,1 10,0 2,-2 4,-4 5,-7 1,-3 1,-5 -1,-8 -2,-2 -4,-4 -8,-5 -4,-1 -7,-1 -9,0 -3,2 -5,4 -5,7 -1,3 -1,6 1,8 2,3 4,4 7,5z"/>
   <path class="fil1" d="M149 750l4 -14c3,1 5,1 7,0 2,-1 3,-2 4,-4 1,-3 1,-6 -1,-9 -2,-3 -7,-6 -15,-10 3,5 3,10 1,15 -2,6 -6,10 -12,12 -6,2 -12,2 -19,0 -7,-3 -12,-7 -15,-13 -3,-6 -3,-13 0,-19 3,-8 8,-12 15,-15 7,-2 17,-1 30,4 13,5 21,11 25,18 4,7 5,14 2,22 -2,5 -6,9 -10,12 -4,2 -9,3 -16,1zm-18 -42c-4,-2 -8,-2 -11,-1 -3,1 -5,3 -6,6 -1,2 -1,5 0,7 2,2 5,5 9,6 5,2 8,2 11,1 3,-1 5,-2 6,-5 1,-3 1,-5 -1,-8 -1,-3 -4,-5 -8,-6z"/>
   <path class="fil1" d="M131 640c3,-7 7,-11 14,-13 8,-2 18,0 31,6 13,6 22,12 25,20 3,5 4,12 1,18 -3,7 -8,12 -16,13 -7,2 -17,0 -30,-6 -13,-6 -21,-12 -25,-19 -3,-6 -3,-12 0,-19zm11 5c-1,1 -1,3 -1,5 1,1 2,3 5,5 3,3 8,6 16,9 8,4 14,6 18,7 3,0 6,0 7,-1 2,-1 3,-2 4,-3 0,-2 0,-4 0,-5 -1,-2 -2,-4 -4,-6 -3,-2 -9,-5 -17,-9 -8,-4 -14,-6 -17,-6 -4,-1 -6,-1 -8,0 -1,1 -3,2 -3,4z"/>
   <path class="fil1" d="M237 599l-7 13 -48 -28c2,7 2,14 0,22l-11 -7c1,-4 1,-8 0,-14 -1,-6 -3,-10 -6,-14l6 -10 66 38z"/>
   <path class="fil1" d="M268 524l11 7 -28 43c-4,-3 -7,-7 -9,-12 -3,-5 -5,-13 -7,-24 -1,-9 -3,-14 -4,-17 -1,-3 -3,-6 -5,-7 -3,-2 -6,-3 -8,-2 -3,0 -5,2 -6,5 -2,2 -2,5 -2,7 1,3 3,5 6,8l-9 11c-6,-5 -10,-10 -10,-16 -1,-6 1,-12 5,-17 4,-7 9,-10 15,-12 5,-1 11,0 16,3 3,2 5,4 7,7 2,3 3,6 5,10 1,3 2,7 3,13 1,7 2,11 2,12 1,2 1,4 2,5l16 -24z"/>
   <path class="fil1" d="M272 503l8 -12c3,1 6,2 8,2 3,-1 5,-2 7,-4 2,-2 2,-5 2,-8 -1,-3 -2,-6 -5,-8 -3,-3 -6,-4 -9,-3 -3,0 -5,1 -7,3 -1,2 -2,4 -3,6l-9 -8c3,-3 4,-6 4,-9 0,-3 -2,-5 -4,-7 -2,-2 -4,-2 -6,-2 -2,0 -4,1 -6,3 -1,2 -2,5 -2,7 1,3 2,5 4,7l-10 10c-3,-4 -5,-7 -6,-11 -1,-3 -1,-6 0,-10 1,-4 3,-7 5,-10 5,-6 10,-9 16,-10 5,0 10,1 13,4 6,4 8,10 6,18 4,-2 7,-4 12,-4 4,0 8,1 11,4 6,4 8,10 9,17 1,6 -1,13 -5,18 -5,6 -10,9 -16,10 -6,1 -11,0 -17,-3z"/>
   <path class="fil1" d="M349 440l-12 -10 -20 24 -10 -9 -14 -57 8 -9 36 32 6 -7 10 8 -6 7 11 10 -9 11zm-21 -18l-20 -18 8 31 12 -13z"/>
   <path class="fil1" d="M361 396l10 -11c2,2 5,3 8,3 2,0 5,-1 7,-3 2,-2 3,-5 3,-8 0,-3 -2,-7 -6,-10 -3,-4 -6,-6 -9,-6 -3,0 -6,1 -9,3 -3,3 -4,7 -4,12l-9 7 -23 -34 28 -26 10 9 -20 20 7 10c1,-3 3,-6 6,-8 4,-5 10,-7 16,-7 7,1 13,3 18,9 4,4 7,10 8,16 1,8 -2,15 -8,21 -5,5 -11,8 -17,8 -5,1 -11,-1 -16,-5z"/>
   <path class="fil1" d="M1740 355c6,-5 12,-9 17,-11 4,-1 8,-2 12,-2 5,1 9,1 12,3 5,2 9,5 13,10 8,8 12,17 11,27 0,9 -5,19 -14,27 -9,8 -18,13 -28,12 -10,0 -18,-4 -26,-12 -8,-8 -11,-17 -11,-27 1,-10 6,-19 14,-27zm11 11c-6,6 -9,12 -10,18 0,6 2,11 6,16 4,4 9,6 15,6 6,0 12,-3 18,-9 7,-6 10,-12 11,-17 0,-6 -2,-11 -6,-16 -4,-5 -9,-7 -15,-7 -6,0 -12,3 -19,9z"/>
   <polygon class="fil1" points="1836,403 1868,444 1858,452 1836,423 1786,462 1777,450 "/>
   <path class="fil1" d="M1817 504l63 -44 14 20c5,8 8,13 9,16 2,4 2,8 0,13 -1,5 -4,9 -9,12 -4,3 -8,4 -11,5 -4,0 -7,0 -10,-1 -3,-1 -6,-3 -8,-5 -2,-2 -6,-6 -10,-12l-5 -8 -24 16 -9 -12zm61 -24l-18 12 5 7c4,5 6,8 8,9 2,2 4,2 6,2 2,0 4,0 6,-2 2,-1 3,-3 4,-6 0,-2 0,-4 -1,-7 -1,-1 -3,-4 -6,-9l-4 -6z"/>
   <polygon class="fil1" points="1861,569 1927,531 1934,544 1909,559 1924,585 1949,570 1957,584 1891,622 1884,608 1912,592 1897,566 1869,582 "/>
   <polygon class="fil1" points="1971,612 1977,626 1930,646 1989,654 1995,668 1926,699 1920,686 1965,665 1908,658 1901,643 "/>
   <polygon class="fil1" points="2007,696 2026,754 1954,779 1949,764 2009,743 2000,715 1940,736 1935,721 "/>
   <path class="fil1" d="M1976 863l-3 -14 53 -13c-6,-4 -11,-9 -15,-16l13 -3c2,4 6,7 10,11 4,3 9,5 14,6l2 12 -74 17z"/>
   <path class="fil1" d="M2002 939l-14 2 -6 -51c5,0 10,1 15,3 5,2 12,7 20,14 7,6 12,10 14,11 3,1 6,2 9,2 3,-1 6,-2 7,-4 2,-2 2,-4 2,-7 0,-3 -2,-6 -4,-7 -2,-2 -5,-2 -9,-2l0 -15c8,0 14,2 18,6 4,4 6,10 7,17 1,7 0,13 -4,18 -3,5 -8,7 -14,8 -3,1 -7,0 -10,-1 -3,0 -7,-2 -10,-4 -3,-2 -6,-4 -11,-8 -5,-5 -8,-7 -9,-8 -2,-1 -3,-2 -5,-3l4 29z"/>
   <path class="fil1" d="M2011 956l3 14c-4,1 -6,2 -8,5 -2,2 -3,4 -2,7 0,3 1,5 4,7 2,2 5,3 9,3 4,-1 6,-2 8,-4 2,-2 3,-4 3,-7 0,-2 -1,-4 -1,-7l12 1c0,4 1,7 3,9 2,2 4,3 7,2 3,0 5,-1 6,-2 1,-2 2,-4 2,-7 0,-2 -1,-4 -3,-6 -2,-1 -5,-2 -8,-2l1 -14c5,1 9,2 12,3 3,2 5,5 7,8 2,3 3,7 3,11 0,7 -2,13 -6,18 -3,4 -7,6 -12,6 -7,0 -12,-3 -17,-10 0,5 -2,8 -5,11 -3,3 -7,4 -12,5 -6,0 -12,-2 -17,-6 -5,-5 -8,-11 -8,-18 -1,-7 1,-13 4,-18 4,-4 9,-7 15,-9z"/>
   <path class="fil1" d="M1995 1054l16 0 -1 -32 13 0 49 32 0 13 -48 1 0 9 -13 0 0 -9 -15 0 -1 -14zm28 -1l26 0 -26 -17 0 17z"/>
   <path class="fil1" d="M2020 1094l0 14c-3,1 -6,2 -8,4 -2,1 -3,4 -3,6 0,3 1,6 3,8 2,3 6,4 11,4 4,1 8,0 10,-2 3,-2 4,-5 5,-8 0,-4 -2,-8 -5,-12l2 -11 39 10 -2 38 -14 0 2 -28 -13 -3c2,3 2,7 2,10 -1,6 -3,12 -8,16 -5,4 -12,6 -19,5 -6,0 -12,-2 -16,-6 -7,-6 -9,-13 -9,-22 1,-7 3,-12 7,-16 4,-4 9,-7 16,-7z"/>
   <path class="fil1" d="M2049 1215l0 -14c3,0 5,-1 7,-2 1,-1 2,-3 2,-5 1,-3 0,-6 -3,-8 -2,-3 -8,-5 -16,-7 4,5 5,9 4,15 0,6 -3,11 -8,14 -5,4 -12,6 -19,5 -8,-1 -14,-4 -18,-9 -4,-6 -5,-12 -4,-19 0,-7 4,-13 11,-18 6,-4 16,-5 30,-3 13,1 23,5 29,11 5,6 7,13 6,21 0,6 -3,10 -6,14 -4,3 -9,5 -15,5zm-28 -36c-4,-1 -8,0 -11,1 -3,2 -4,5 -5,7 0,3 1,5 3,8 2,2 5,3 10,3 5,1 8,1 11,-1 2,-2 4,-4 4,-7 0,-3 0,-5 -2,-7 -2,-3 -5,-4 -10,-4z"/>
   <path class="fil1" d="M2055 1239l14 3 -12 49 -10 -2c-3,-5 -8,-11 -14,-16 -6,-6 -14,-11 -21,-15 -8,-5 -15,-7 -22,-9l3 -14c10,3 20,8 30,14 10,7 18,14 25,23l7 -33z"/>
   <path class="fil1" d="M2020 1314c2,-3 5,-5 8,-6 3,-1 7,-1 10,0 5,2 9,5 12,10 2,5 2,11 0,18 -2,7 -5,12 -10,14 -4,3 -9,4 -15,2 -3,-1 -6,-2 -8,-5 -2,-3 -3,-6 -4,-9 -3,3 -6,6 -10,7 -3,1 -7,1 -11,0 -7,-2 -12,-6 -15,-11 -3,-6 -3,-12 -1,-19 2,-7 5,-12 10,-15 5,-4 12,-5 19,-3 4,1 7,3 10,6 3,3 4,7 5,11zm13 7c-3,-1 -5,0 -7,1 -2,1 -4,3 -4,5 -1,3 -1,5 0,7 1,3 3,4 6,5 3,1 5,0 7,-1 2,-1 3,-3 4,-5 1,-3 1,-5 0,-8 -1,-2 -3,-3 -6,-4zm-31 -10c-4,-1 -7,-1 -10,0 -2,2 -4,4 -5,7 -1,3 -1,5 1,8 2,2 4,4 8,5 4,1 7,1 9,0 3,-2 5,-4 5,-7 1,-3 1,-6 -1,-8 -2,-3 -4,-4 -7,-5z"/>
   <path class="fil1" d="M1984 1361l-3 14c-3,0 -5,0 -7,1 -2,1 -3,2 -4,4 -1,3 0,6 2,9 2,3 7,6 15,10 -3,-5 -4,-10 -2,-16 2,-5 6,-9 12,-12 5,-3 12,-3 19,0 7,2 12,6 15,12 3,6 3,12 1,19 -2,8 -7,13 -15,15 -7,3 -17,2 -30,-2 -13,-5 -22,-11 -26,-17 -4,-7 -4,-15 -2,-23 2,-5 5,-9 9,-12 5,-2 10,-3 16,-2zm19 42c5,1 9,2 12,0 3,-1 5,-3 6,-5 1,-3 0,-5 -1,-8 -1,-2 -4,-4 -9,-6 -5,-1 -8,-2 -11,0 -3,1 -5,2 -6,5 -1,3 0,6 1,8 2,3 4,5 8,6z"/>
   <path class="fil1" d="M2010 1472c-3,7 -8,11 -15,13 -7,2 -18,0 -31,-6 -13,-6 -21,-12 -25,-19 -3,-6 -3,-13 0,-19 3,-7 8,-12 15,-13 7,-2 17,0 30,6 13,6 22,12 25,19 3,6 3,12 1,19zm-12 -5c1,-1 1,-3 1,-5 -1,-1 -2,-3 -4,-5 -3,-3 -9,-6 -17,-9 -8,-4 -14,-6 -17,-7 -4,0 -6,0 -8,1 -1,1 -3,2 -3,3 -1,2 -1,4 -1,6 1,1 2,3 5,5 3,2 8,5 16,9 8,4 14,6 18,6 3,1 5,1 7,0 2,-1 3,-2 3,-4z"/>
   <path class="fil1" d="M1908 1513l6 -13 49 25c-2,-7 -2,-15 -1,-22l11 6c0,4 0,9 1,14 1,6 3,10 7,14l-6 10 -67 -34z"/>
   <path class="fil1" d="M1883 1587l-11 -7 28 -43c4,3 7,7 9,12 3,5 5,13 7,24 1,9 2,14 3,17 2,3 4,6 6,7 3,2 6,3 8,2 2,0 4,-2 6,-5 2,-2 2,-5 2,-7 -1,-3 -3,-5 -6,-8l9 -11c6,5 10,10 10,16 0,6 -1,12 -5,17 -4,7 -9,10 -15,12 -5,1 -11,0 -16,-3 -3,-2 -5,-4 -7,-7 -2,-3 -4,-6 -5,-10 -1,-3 -2,-7 -3,-13 -1,-7 -2,-11 -2,-12 -1,-2 -1,-4 -2,-5l-16 24z"/>
   <path class="fil1" d="M1881 1606l-7 13c-3,-2 -6,-3 -8,-2 -3,0 -5,2 -7,4 -2,2 -2,5 -1,8 0,3 2,6 5,8 3,2 6,3 9,3 3,-1 5,-2 7,-4 1,-2 2,-4 3,-7l9 9c-3,3 -4,6 -3,9 0,2 1,5 4,6 2,2 4,2 6,2 2,0 4,-2 5,-4 2,-2 2,-4 2,-7 0,-2 -2,-4 -4,-7l9 -9c3,3 6,6 7,10 1,3 1,6 1,10 -1,3 -3,7 -5,10 -4,6 -9,10 -16,11 -5,0 -9,-1 -13,-3 -5,-4 -8,-10 -7,-18 -3,3 -7,4 -11,5 -4,0 -8,-1 -12,-4 -5,-4 -8,-9 -9,-16 -1,-7 0,-13 4,-19 4,-5 9,-9 15,-10 6,-2 11,-1 17,2z"/>
   <path class="fil1" d="M1811 1670l12 11 20 -24 9 8 15 57 -8 9 -36 -31 -6 7 -10 -9 6 -7 -11 -10 9 -11zm21 19l20 17 -8 -30 -12 13z"/>
   <path class="fil1" d="M1802 1713l-9 12c-3,-2 -5,-3 -8,-3 -3,0 -5,1 -7,3 -2,2 -3,5 -3,8 1,4 3,7 6,10 3,4 7,5 10,5 3,1 6,-1 8,-3 3,-3 4,-7 4,-12l9 -7 24 33 -27 27 -10 -9 19 -20 -8 -11c-1,4 -2,7 -5,9 -4,5 -10,7 -16,7 -7,0 -13,-2 -18,-8 -5,-4 -7,-9 -8,-15 -2,-8 1,-16 7,-22 5,-5 10,-8 16,-9 5,0 11,2 16,5z"/>
   <polygon class="fil2" points="228,1038 229,1029 299,1034 231,990 232,981 320,987 320,996 250,991 317,1034 316,1044 "/>
   <polygon class="fil2" points="322,963 235,948 237,938 272,945 279,907 243,901 245,891 332,907 330,916 289,909 283,946 324,954 "/>
   <path class="fil2" d="M254 854l11 -43 75 20 2 -6 30 8 -2 8 -20 -5 -12 47 19 5 -2 8 -30 -8 2 -5c-9,-9 -29,-17 -61,-26l-12 -3zm19 -31l-7 25 4 1c8,2 17,5 30,9 12,5 22,10 29,15l9 -32 -65 -18z"/>
   <polygon class="fil2" points="277,776 281,768 346,794 295,732 299,723 381,756 377,764 313,738 363,801 359,809 "/>
   <path class="fil2" d="M390 736l-79 -41 13 -24c2,-5 5,-9 8,-11 3,-2 7,-3 11,-3 4,0 8,1 12,3 3,2 6,4 8,7 3,3 4,7 4,10 3,-3 7,-5 12,-5 4,-1 9,0 13,3 5,2 9,5 11,9 3,4 4,8 4,12 0,4 -1,9 -4,15l-13 25zm-41 -32l7 -14c2,-4 3,-7 3,-9 1,-2 0,-5 -1,-7 -1,-2 -3,-4 -6,-5 -3,-2 -6,-2 -8,-2 -3,0 -5,1 -6,2 -2,2 -4,5 -6,9l-7 13 24 13zm36 18l9 -16c1,-3 2,-6 3,-8 0,-3 -1,-6 -2,-8 -2,-3 -4,-5 -7,-6 -3,-2 -6,-2 -9,-2 -2,0 -5,1 -7,2 -2,2 -4,5 -6,9l-8 15 27 14z"/>
   <polygon class="fil2" points="354,617 359,610 416,651 381,578 386,570 459,621 454,629 396,588 432,660 426,668 "/>
   <path class="fil2" d="M410 539l29 -34 59 52 4 -5 24 20 -6 7 -15 -14 -32 37 16 13 -6 7 -23 -21 3 -4c-4,-12 -18,-28 -43,-50l-10 -8zm31 -20l-17 20 4 3c5,5 13,12 22,21 9,9 16,18 20,26l22 -25 -51 -45z"/>
   <path class="fil2" d="M456 486l7 -7 55 23 -23 -54 7 -7 28 69c4,9 6,15 6,18 0,4 -1,7 -4,9 -2,2 -5,4 -8,5l-7 -7c3,0 6,-2 8,-4 1,-1 2,-3 2,-6 0,-2 -2,-7 -5,-13l-66 -26z"/>
   <path class="fil2" d="M569 500l-32 -88 8 -6 78 52 -9 7 -23 -16 -24 18 10 27 -8 6zm-6 -42l20 -15 -21 -15c-7,-4 -12,-8 -16,-11 3,5 6,10 8,16l9 25z"/>
   <path class="fil2" d="M592 371l38 -25 48 75 -8 5 -43 -66 -22 15 25 38c5,8 9,14 10,18 2,4 3,7 2,11 0,3 -2,6 -5,8 -2,1 -4,2 -7,3l-5 -10c2,0 4,-1 4,-1 2,-1 3,-3 3,-5 0,-3 -2,-7 -6,-13l-34 -53z"/>
   <path class="fil2" d="M659 330l8 -4 17 34 16 -8c5,-3 10,-5 14,-5 4,-1 8,1 12,3 4,3 7,7 10,11 3,7 4,13 3,19 -1,7 -6,12 -16,17l-24 12 -40 -79zm44 66l16 -8c5,-3 8,-6 10,-9 1,-4 0,-8 -2,-13 -2,-3 -4,-5 -7,-7 -2,-1 -5,-2 -7,-1 -3,0 -7,2 -13,5l-11 6 14 27z"/>
   <polygon class="fil2" points="765,378 732,295 741,291 755,325 790,311 776,277 785,274 818,356 809,360 794,321 759,335 774,374 "/>
   <path class="fil2" d="M822 262l9 -2 9 37 17 -4c6,-2 11,-2 15,-2 4,1 8,3 11,7 3,3 5,7 6,13 2,7 1,13 -1,19 -3,6 -9,10 -19,12l-27 6 -20 -86zm27 75l17 -4c6,-2 10,-4 12,-7 2,-3 3,-7 1,-13 -1,-3 -2,-6 -4,-8 -2,-2 -5,-3 -7,-3 -3,0 -7,0 -13,2l-13 2 7 31zm59 -4l-20 -87 10 -2 20 87 -10 2z"/>
   <path class="fil2" d="M931 239l9 -1 8 70 30 -75 10 -1 11 88 -9 1 -9 -69 -29 74 -10 1 -11 -88zm36 -26l6 -1c0,5 -1,9 -3,12 -3,3 -6,5 -10,5 -4,1 -7,0 -10,-2 -3,-3 -5,-6 -6,-11l6 -1c1,5 5,7 9,7 3,0 5,-1 6,-3 1,-1 2,-3 2,-6z"/>
   <polygon class="fil2" points="1060,319 1051,319 1054,230 1111,232 1107,321 1098,321 1101,242 1063,241 "/>
   <path class="fil2" d="M1131 324l11 -89 27 4c6,0 11,2 14,3 4,2 7,5 9,10 2,4 2,9 1,15 -1,8 -3,15 -8,19 -5,5 -12,6 -22,5l-18 -2 -5 36 -9 -1zm15 -46l19 3c6,0 10,0 13,-3 3,-2 5,-6 6,-11 0,-4 0,-7 -1,-9 -1,-3 -3,-5 -5,-6 -1,-1 -5,-2 -10,-3l-18 -2 -4 31z"/>
   <polygon class="fil2" points="1206,335 1225,248 1277,260 1274,270 1232,261 1226,287 1265,296 1263,307 1224,297 1217,327 1261,337 1258,347 "/>
   <path class="fil2" d="M1313 272l42 15 -25 74 6 2 -10 30 -8 -3 6 -20 -45 -15 -7 19 -8 -3 10 -29 6 2c9,-9 18,-28 29,-59l4 -13zm30 22l-24 -9 -2 5c-2,7 -6,16 -11,28 -6,12 -11,22 -17,29l32 11 22 -64z"/>
   <polygon class="fil2" points="1359,386 1350,381 1390,302 1441,328 1401,407 1393,403 1428,333 1394,316 "/>
   <path class="fil2" d="M1422 418l48 -75 23 15c5,4 9,7 11,10 3,3 4,7 4,12 -1,5 -2,10 -6,15 -4,7 -9,11 -15,13 -6,2 -14,1 -22,-5l-16 -10 -19 30 -8 -5zm33 -34l16 10c5,4 9,5 13,4 4,-1 7,-3 10,-8 2,-3 3,-6 3,-9 0,-2 0,-5 -1,-7 -1,-1 -4,-4 -8,-6l-16 -11 -17 27z"/>
   <polygon class="fil2" points="1540,390 1546,395 1503,451 1577,419 1585,425 1530,495 1523,490 1566,434 1493,466 1485,460 "/>
   <polygon class="fil2" points="1547,511 1609,447 1615,453 1590,480 1617,506 1643,480 1649,487 1588,551 1581,544 1610,514 1583,487 1554,517 "/>
   <polygon class="fil2" points="1675,514 1680,521 1625,564 1704,551 1710,559 1640,614 1635,607 1690,564 1611,576 1605,569 "/>
   <path class="fil2" d="M1654 632l74 -48 8 12 -43 48 -9 11c3,-2 8,-3 14,-5l61 -19 7 11 -74 48 -5 -7 62 -41 -74 23 -4 -8 51 -58 -63 41 -5 -8z"/>
   <path class="fil2" d="M1699 704l91 -15 5 9 -65 67 -5 -10 20 -20 -14 -27 -28 5 -4 -9zm42 2l11 22 18 -18c6,-5 11,-10 14,-13 -5,2 -11,3 -17,5l-26 4z"/>
   <polygon class="fil2" points="1741,797 1813,768 1804,746 1814,742 1835,795 1826,799 1817,777 1744,806 "/>
   <polygon class="fil2" points="1757,846 1842,821 1857,872 1847,875 1835,833 1809,841 1820,880 1810,883 1799,844 1770,852 1782,895 1772,898 "/>
   <path class="fil2" d="M1863 909l8 45 -87 15 -2 -9 77 -14 -5 -26 -45 8c-9,2 -15,3 -20,3 -4,0 -8,-1 -11,-3 -2,-2 -4,-4 -5,-8 0,-2 0,-5 1,-8l10 0c-1,2 -1,3 0,4 0,2 1,4 3,5 2,0 7,0 15,-1l61 -11z"/>
   <path class="fil2" d="M1873 987l1 10 -38 3 1 17c1,6 1,12 -1,16 -1,3 -3,7 -7,9 -4,3 -9,4 -15,5 -6,0 -12,-1 -18,-5 -5,-3 -8,-10 -9,-21l-2 -27 88 -7zm-77 16l1 17c0,6 2,10 4,13 3,3 7,4 13,3 3,0 6,-1 9,-3 2,-2 3,-4 4,-6 1,-3 1,-7 0,-14l-1 -13 -30 3z"/>
   <path class="fil2" d="M286 1349l82 -32 10 25c3,6 4,11 4,14 0,5 -1,9 -4,13 -3,4 -7,7 -13,9 -7,3 -14,3 -20,1 -6,-2 -11,-7 -15,-16l-7 -18 -33 14 -4 -10zm47 -8l7 18c2,5 5,9 8,10 4,2 8,2 13,0 3,-1 6,-3 8,-5 2,-3 3,-5 3,-7 0,-2 -1,-6 -3,-10l-7 -18 -29 12zm6 52c10,-5 18,-7 25,-5 7,1 13,5 16,11 3,7 3,13 0,20 -2,7 -9,13 -18,18 -10,5 -19,7 -26,6 -7,-2 -12,-6 -16,-12 -3,-7 -3,-13 0,-20 3,-7 9,-13 19,-18zm4 8c-7,4 -12,8 -14,13 -3,4 -3,8 -1,12 2,5 6,7 11,8 5,0 11,-1 18,-5 8,-4 12,-9 15,-13 2,-5 2,-9 0,-13 -2,-3 -6,-6 -11,-6 -5,-1 -11,0 -18,4zm33 78l3 9c-7,3 -14,3 -19,2 -6,-2 -10,-5 -13,-10 -3,-6 -3,-12 -1,-19 3,-7 9,-13 19,-18 10,-6 18,-8 25,-7 7,1 12,5 16,11 3,5 3,10 2,15 -1,5 -4,9 -9,13l-6 -6c3,-3 5,-6 6,-9 1,-3 1,-6 -1,-8 -2,-4 -5,-6 -10,-7 -5,0 -11,2 -18,6 -8,4 -13,8 -15,13 -2,4 -2,8 0,12 2,3 4,4 8,5 3,1 8,0 13,-2zm27 41l4 8c-7,3 -13,5 -19,4 -5,-1 -10,-4 -13,-9 -4,-5 -5,-12 -3,-19 2,-7 7,-14 16,-20 10,-6 18,-9 25,-9 7,0 13,4 17,9 3,5 5,9 4,14 -1,6 -3,11 -8,16l-7 -7c3,-3 5,-6 6,-9 0,-3 0,-6 -2,-8 -2,-4 -6,-6 -12,-6 -4,0 -10,2 -17,7 -7,5 -12,10 -13,15 -2,5 -1,9 1,12 2,3 5,5 8,5 4,0 8,-1 13,-3zm41 -13l6 7 -39 30 54 -10 6 7 -51 40 -6 -7 39 -30 -54 10 -6 -7 51 -40zm33 42l6 7 -37 32 53 -13 7 7 -49 42 -6 -7 37 -31 -53 13 -6 -8 48 -42zm38 7l4 5c-4,3 -8,4 -12,4 -3,-1 -7,-2 -9,-5 -3,-3 -4,-7 -4,-10 1,-4 3,-8 6,-12l4 5c-3,4 -4,8 -1,12 2,2 4,3 6,3 2,0 4,-1 6,-2zm-8 84l6 7c-6,5 -12,8 -18,8 -5,0 -10,-2 -14,-6 -5,-5 -7,-11 -7,-18 1,-7 5,-15 13,-23 7,-8 15,-12 22,-13 7,-1 13,1 18,6 4,3 6,8 7,13 0,5 -2,10 -6,16l-7 -5c2,-4 3,-7 3,-10 0,-3 -1,-6 -3,-8 -3,-3 -7,-4 -12,-3 -5,1 -10,4 -16,10 -6,7 -9,12 -10,17 0,5 1,9 4,11 2,3 5,4 9,4 3,-1 7,-2 11,-6zm38 -20l7 6 -18 20c2,2 4,3 6,3 1,0 5,-2 11,-6 5,-2 8,-4 10,-4 2,-1 3,-1 5,0 1,0 3,1 6,4l1 1 -6 6 -2 -1c-1,-2 -3,-2 -4,-2 -1,0 -2,0 -4,1 -6,4 -10,6 -12,7 -2,1 -4,1 -7,0 2,4 2,9 0,17l-6 22 -7 -7 6 -21c1,-4 1,-7 1,-9 0,-2 -1,-4 -3,-5l-19 23 -7 -6 42 -49zm24 92c-5,1 -9,1 -12,0 -4,-1 -7,-2 -9,-4 -5,-4 -7,-8 -8,-12 0,-5 1,-9 5,-14 2,-3 5,-5 8,-6 3,-1 6,-2 9,-1 3,0 7,2 12,4 6,4 11,6 14,7l2 -2c3,-3 4,-6 4,-9 0,-3 -2,-6 -6,-9 -3,-2 -6,-4 -8,-4 -3,0 -6,2 -10,5l-6 -7c5,-4 10,-7 15,-7 5,0 10,3 16,7 4,3 7,7 8,10 1,4 1,7 0,10 -1,3 -4,7 -7,11l-9 12c-6,8 -10,13 -12,15 -1,2 -2,5 -3,7l-7 -5c1,-3 2,-5 4,-8zm14 -19c-3,-1 -8,-3 -14,-6 -3,-2 -6,-3 -7,-3 -2,0 -4,0 -5,1 -2,0 -3,1 -4,3 -2,2 -3,5 -3,7 1,3 2,5 5,7 2,2 5,4 8,4 3,0 6,0 9,-2 2,-1 5,-4 9,-8l2 -3zm68 7l-35 55 -7 -5 13 -21 -4 -3c-3,-2 -5,-3 -7,-3 -2,0 -5,2 -11,5l-14 8 -9 -6 17 -10c6,-3 10,-4 13,-3 -4,-3 -6,-7 -6,-12 0,-4 1,-8 3,-12 3,-5 7,-8 12,-9 4,-1 9,0 14,3l21 13zm-13 3l-10 -7c-5,-3 -8,-4 -11,-3 -2,1 -4,3 -5,5 -2,3 -3,6 -2,9 1,3 4,6 9,9l8 5 11 -18zm74 16l5 -9 8 4 -5 9c8,6 13,12 15,20 2,8 1,16 -3,24 -5,8 -11,14 -18,17 -8,3 -16,3 -24,-1l-5 10 -8 -4 5 -10c-8,-4 -13,-11 -15,-18 -2,-8 -1,-17 3,-25 5,-10 11,-15 19,-18 8,-3 15,-2 23,1zm4 14l-22 41c6,2 11,3 16,1 5,-2 9,-6 13,-12 3,-7 4,-12 3,-17 -2,-6 -5,-10 -10,-13zm-8 -4c-6,-3 -11,-4 -16,-1 -5,2 -10,6 -13,12 -3,6 -4,12 -3,18 2,5 5,9 10,12l22 -41zm54 77l8 4c-4,6 -9,10 -14,12 -5,1 -10,1 -15,-1 -7,-3 -12,-7 -14,-14 -2,-8 -2,-16 2,-26 4,-10 10,-17 16,-21 6,-4 13,-4 20,-2 6,3 10,7 12,14 3,7 2,16 -2,26l-1 2 -37 -14c-2,7 -3,13 -1,18 1,4 4,7 8,9 6,2 12,0 18,-7zm-21 -28l27 11c2,-6 2,-10 1,-13 -1,-5 -4,-8 -8,-10 -3,-1 -7,-1 -11,1 -4,2 -7,6 -9,11zm60 -5l34 12 -18 53 6 2 -9 25 -7 -2 6 -17 -39 -14 -6 18 -7 -3 9 -25 4 1c10,-8 18,-25 27,-50zm4 11c-7,20 -15,34 -23,42l27 9 15 -44 -19 -7zm64 55l8 4c-3,6 -6,10 -11,13 -5,2 -10,3 -16,1 -7,-1 -12,-5 -15,-12 -4,-6 -4,-15 -2,-25 3,-11 7,-19 13,-24 6,-4 12,-6 19,-4 6,1 11,5 15,12 3,7 4,15 1,26l-1 3 -38 -9c-2,7 -1,13 1,17 2,4 5,7 9,8 7,1 12,-2 17,-10zm-25 -24l29 7c1,-6 0,-10 -1,-13 -2,-4 -5,-8 -9,-9 -4,-1 -8,0 -11,3 -4,3 -6,7 -8,12zm36 74l16 -89 8 2 -2 8c3,-3 5,-5 8,-6 3,-1 6,-1 9,-1 4,1 7,3 10,6 3,3 5,7 6,12 1,6 1,12 0,19 -2,10 -6,18 -11,23 -6,5 -11,7 -17,6 -3,0 -5,-1 -8,-3 -2,-2 -3,-4 -5,-7l-5 31 -9 -1zm18 -55c-1,8 -1,15 1,19 2,4 5,7 9,7 4,1 7,0 11,-4 3,-3 6,-9 7,-18 1,-8 1,-14 -1,-19 -2,-4 -5,-7 -9,-7 -3,-1 -7,1 -10,4 -4,4 -7,10 -8,18zm77 36c-3,2 -7,4 -10,5 -3,2 -7,2 -10,2 -6,-1 -10,-3 -13,-7 -2,-4 -3,-8 -3,-14 1,-4 2,-7 4,-9 2,-3 4,-5 7,-6 3,-2 7,-2 12,-2 8,0 13,-1 17,-2l0 -3c1,-4 0,-7 -1,-9 -2,-3 -5,-5 -10,-5 -4,-1 -7,0 -9,1 -2,1 -4,5 -6,9l-8 -3c2,-6 5,-11 9,-13 4,-3 10,-4 17,-3 5,1 9,2 12,5 3,2 5,5 5,8 1,3 0,8 0,14l-2 14c-2,10 -2,16 -2,19 0,3 0,6 1,8l-9 -1c-1,-3 -1,-5 -1,-8zm3 -24c-4,1 -9,1 -15,2 -4,0 -7,0 -8,1 -2,1 -3,2 -4,3 -1,1 -2,3 -2,5 -1,3 0,6 2,8 1,2 4,3 7,3 3,1 6,0 9,-1 3,-1 5,-3 7,-6 1,-2 2,-6 3,-11l1 -4zm20 -30l9 0 -2 55 25 1 1 -56 9 1 -1 55 6 0 -1 34 -7 0 0 -25 -41 -1 2 -64zm55 1l9 0 1 48 23 -49 10 0 1 64 -9 1 -1 -50 -23 50 -10 0 -1 -64zm95 -5l4 64 -8 1 -2 -26 -5 1c-3,0 -6,1 -7,2 -2,1 -4,4 -6,10l-7 15 -11 1 8 -19c3,-5 6,-8 8,-9 -5,-1 -9,-3 -12,-6 -3,-4 -4,-8 -4,-12 -1,-6 0,-11 3,-14 4,-4 8,-6 14,-6l25 -2zm-9 9l-12 1c-5,1 -9,2 -10,4 -1,2 -2,5 -2,7 0,4 2,7 4,9 3,1 7,2 12,1l10 0 -2 -22zm29 52l-1 -13 10 -1 1 12c1,6 1,9 0,12 -1,3 -3,6 -6,7l-3 -4c2,-1 3,-3 4,-5 0,-2 1,-5 0,-9l-5 1zm39 -72l29 -7 2 9 -20 5 12 54 -9 2 -14 -63zm53 54l-4 -12 10 -3 4 12 -10 3zm53 -15l-33 -83 26 -10c6,-2 11,-4 14,-4 4,0 8,2 12,5 4,3 7,7 9,12 3,8 4,15 2,21 -2,6 -8,11 -17,14l-18 8 14 33 -9 4zm-8 -47l17 -7c6,-2 9,-5 11,-9 1,-3 1,-7 -1,-12 -1,-4 -3,-6 -5,-8 -2,-2 -4,-3 -6,-3 -2,0 -6,1 -11,2l-17 7 12 30zm54 -6c-5,-10 -6,-18 -4,-25 2,-7 6,-12 12,-15 7,-3 13,-3 20,0 6,3 12,10 16,19 5,11 6,20 4,27 -2,7 -6,12 -12,15 -7,3 -13,3 -20,0 -6,-4 -12,-11 -16,-21zm8 -4c3,8 7,13 12,16 4,2 8,2 12,0 4,-1 7,-5 8,-10 1,-5 -1,-11 -4,-18 -3,-8 -7,-13 -12,-15 -4,-3 -8,-3 -12,-1 -4,2 -7,5 -8,10 -1,5 0,11 4,18zm78 -29l9 -3c2,8 3,14 1,19 -2,6 -5,10 -10,12 -6,4 -12,4 -19,1 -7,-3 -12,-10 -17,-19 -6,-10 -7,-19 -6,-26 1,-7 5,-12 11,-16 5,-2 10,-3 15,-1 5,1 9,4 13,10l-7 6c-2,-4 -5,-6 -8,-7 -3,-1 -6,-1 -8,1 -4,2 -6,5 -7,10 -1,5 1,11 5,18 4,8 8,13 12,15 4,2 8,3 12,1 3,-2 5,-4 6,-8 1,-3 0,-8 -2,-13zm-8 -42l36 -23 5 7 -15 9 30 47 -7 5 -30 -47 -14 9 -5 -7zm56 2c-6,-9 -9,-17 -9,-25 1,-7 4,-13 10,-17 5,-4 12,-5 19,-3 7,2 13,7 20,16 6,9 9,17 9,25 -1,7 -4,13 -10,17 -5,4 -12,5 -19,3 -7,-1 -14,-7 -20,-16zm7 -6c5,7 10,11 15,13 5,1 9,1 12,-2 4,-2 6,-6 6,-11 0,-5 -3,-11 -7,-18 -5,-6 -10,-10 -15,-12 -5,-2 -9,-1 -12,2 -4,2 -6,6 -6,11 0,5 3,11 7,17zm18 -51l16 -14c3,-3 6,-5 9,-6 2,-1 5,-1 8,-1 4,1 6,3 9,6 4,5 6,10 4,15 6,-2 12,0 18,6 3,4 5,8 5,13 0,4 -3,9 -9,13l-18 16 -42 -48zm24 14l8 -6c3,-2 4,-4 5,-6 1,-1 1,-3 1,-4 0,-2 -1,-4 -2,-6 -2,-3 -5,-4 -7,-3 -2,0 -5,2 -9,5l-7 7 11 13zm19 22l9 -8c4,-4 6,-6 6,-9 1,-2 0,-5 -2,-7 -2,-3 -5,-4 -7,-4 -3,0 -6,2 -10,6l-9 7 13 15zm20 -40l-8 -8 20 -19 7 8 -19 19zm-1 -51l6 -6 19 18 17 -18 -19 -19 6 -6 46 45 -6 6 -20 -19 -17 18 20 19 -6 7 -46 -45zm101 -28c0,5 0,9 -1,12 -1,4 -3,7 -5,9 -3,5 -7,7 -12,7 -5,0 -9,-1 -13,-5 -3,-2 -5,-5 -6,-8 -2,-3 -2,-6 -1,-9 0,-4 2,-8 5,-12 4,-6 6,-11 8,-15l-3 -2c-3,-2 -6,-4 -8,-4 -3,0 -7,2 -10,5 -2,3 -4,6 -4,9 0,3 2,6 5,10l-7 5c-5,-5 -7,-10 -7,-15 0,-5 3,-10 7,-15 4,-5 8,-7 11,-8 4,-1 7,-1 10,0 3,2 6,4 11,8l11 10c7,6 12,10 15,12 2,1 4,2 7,3l-6 8c-2,-2 -5,-3 -7,-5zm-19 -15c-1,3 -3,8 -6,14 -2,3 -4,6 -4,7 0,2 0,4 0,5 1,2 2,3 4,5 2,2 4,3 7,2 3,0 5,-1 7,-4 2,-2 4,-5 4,-8 0,-3 0,-6 -1,-9 -1,-3 -4,-6 -8,-9l-3 -3zm15 -11l-8 -7 17 -21 8 7 -17 21zm-26 -67l24 -38 65 43 4 -6 26 17 -5 8 -17 -12 -26 41 18 11 -5 7 -26 -17 3 -4c-6,-11 -23,-25 -50,-43l-11 -7zm27 -24l-13 21 4 3c6,4 14,10 24,18 11,8 19,16 24,23l18 -28 -57 -37zm50 7c-9,-5 -15,-12 -18,-18 -2,-7 -2,-14 2,-20 3,-7 8,-10 16,-11 7,-2 15,0 24,6 10,5 16,12 19,19 3,7 2,13 -1,19 -4,6 -9,10 -16,11 -8,2 -16,-1 -26,-6zm5 -8c7,4 13,6 18,5 5,0 9,-2 11,-6 2,-4 2,-8 0,-13 -2,-4 -7,-9 -14,-13 -7,-4 -13,-6 -18,-5 -5,0 -9,2 -11,7 -2,3 -2,7 0,12 2,5 7,9 14,13zm-6 -55l4 -8 24 11 10 -23 -24 -11 4 -8 58 27 -4 8 -25 -12 -11 23 26 11 -4 8 -58 -26zm105 -15l-10 -3c1,-2 2,-3 3,-4 0,-2 1,-4 0,-5 0,-2 -1,-3 -2,-4 0,-1 -3,-3 -9,-8l-67 -4 3 -10 39 4c5,0 10,1 15,2 -4,-3 -8,-6 -12,-9l-31 -24 3 -9 54 43c7,6 12,10 14,12 2,3 3,5 4,7 0,2 0,5 -1,7 -1,1 -2,3 -3,5z"/>
   <path class="fil2" d="M681 907l0 15 -25 0 0 -15c-20,-1 -34,-6 -43,-15 -8,-9 -12,-21 -12,-35 0,-14 4,-26 13,-35 9,-9 23,-14 42,-14l0 -13 25 0 0 13c21,0 35,5 43,14 9,10 13,21 13,35 0,14 -4,26 -13,35 -8,9 -22,14 -43,15zm0 -21c7,0 13,-1 18,-4 5,-2 8,-5 10,-9 2,-4 3,-9 3,-16 0,-19 -10,-28 -31,-28l0 57zm-25 0l0 -57c-10,0 -18,2 -23,7 -5,5 -7,12 -7,22 0,18 10,28 30,28z"/>
   <path id="1" class="fil2" d="M867 922l-28 0 -11 -29 -51 0 -10 29 -27 0 49 -127 27 0 51 127zm-47 -50l-18 -47 -17 47 35 0z"/>
   <polygon id="2" class="fil2" points="880,922 880,795 918,795 941,882 964,795 1002,795 1002,922 978,922 978,822 953,922 929,922 904,822 904,922 "/>
   <polygon id="3" class="fil2" points="1028,795 1052,795 1052,880 1103,795 1129,795 1129,922 1105,922 1105,839 1053,922 1028,922 "/>
   <path id="4" class="fil2" d="M1164 795l88 0 0 127 -25 0 0 -106 -38 0 0 55c0,15 -1,26 -2,32 -1,6 -3,11 -7,15 -4,3 -11,5 -19,5 -3,0 -8,0 -16,-1l0 -20 5 0c6,0 9,-1 11,-2 2,-1 3,-5 3,-11l0 -22 0 -72z"/>
   <polygon id="5" class="fil2" points="1279,795 1303,795 1303,880 1354,795 1380,795 1380,922 1356,922 1356,839 1305,922 1279,922 "/>
   <path id="6" class="fil2" d="M1481 922l0 -53 -5 0c-8,0 -14,1 -17,4 -3,2 -9,9 -17,21l-18 28 -31 0 16 -25c6,-10 11,-16 14,-20 4,-4 8,-8 14,-11 -12,-2 -20,-6 -26,-12 -5,-7 -7,-14 -7,-23 0,-8 1,-15 5,-21 4,-6 9,-10 16,-12 6,-2 16,-3 28,-3l54 0 0 127 -26 0zm0 -106l-19 0c-11,0 -17,1 -20,1 -4,1 -6,2 -9,5 -2,3 -3,6 -3,10 0,5 1,8 3,11 2,3 5,4 9,5 3,0 10,1 21,1l18 0 0 -33z"/>
   <polygon class="fil2" points="869,993 893,993 893,1078 944,993 970,993 970,1120 946,1120 946,1037 895,1120 869,1120 "/>
   <polygon id="1" class="fil2" points="996,1120 996,993 1034,993 1057,1080 1079,993 1118,993 1118,1120 1094,1120 1094,1020 1069,1120 1044,1120 1019,1020 1019,1120 "/>
   <path id="2" class="fil2" d="M1219 1120l0 -53 -5 0c-8,0 -14,2 -17,4 -4,2 -9,10 -18,22l-18 27 -30 0 15 -24c6,-10 11,-17 15,-21 3,-4 8,-8 13,-11 -12,-2 -20,-6 -25,-12 -6,-6 -8,-14 -8,-23 0,-8 2,-15 6,-21 4,-6 9,-10 15,-12 6,-2 16,-3 29,-3l53 0 0 127 -25 0zm0 -105l-20 0c-10,0 -17,0 -20,0 -3,1 -6,3 -8,5 -3,3 -4,6 -4,11 0,4 1,8 4,10 2,3 5,5 8,5 3,1 10,1 21,1l19 0 0 -32z"/>
   <path class="fil2" d="M574 1256c0,-12 2,-23 6,-32 3,-7 7,-13 12,-18 5,-5 10,-9 16,-11 8,-3 17,-5 28,-5 18,0 33,6 44,17 12,12 17,28 17,49 0,20 -5,37 -16,48 -11,12 -26,18 -45,18 -19,0 -34,-6 -45,-18 -11,-11 -17,-27 -17,-48zm27 0c0,14 3,25 10,32 6,8 15,12 25,12 10,0 19,-4 25,-12 7,-7 10,-18 10,-33 0,-14 -3,-25 -10,-32 -6,-8 -14,-11 -25,-11 -11,0 -19,3 -26,11 -6,7 -9,18 -9,33z"/>
   <polygon id="1" class="fil2" points="746,1319 746,1214 708,1214 708,1192 809,1192 809,1214 771,1214 771,1319 "/>
   <path id="2" class="fil2" d="M823 1192l26 0 0 30c0,10 0,17 1,20 0,3 3,6 6,8 4,3 9,4 16,4 5,0 10,-1 14,-2 5,-1 8,-3 11,-5l0 -55 26 0 0 127 -26 0 0 -51c-5,2 -10,4 -15,5 -5,1 -10,2 -15,2 -12,0 -23,-3 -31,-9 -9,-6 -13,-16 -13,-31l0 -43z"/>
   <polygon id="3" class="fil2" points="949,1319 949,1192 1043,1192 1043,1214 975,1214 975,1242 1038,1242 1038,1263 975,1263 975,1298 1046,1298 1046,1319 "/>
   <path id="4" class="fil2" d="M1148 1272l25 8c-4,14 -10,24 -19,31 -9,7 -20,10 -34,10 -16,0 -30,-5 -41,-17 -11,-11 -16,-27 -16,-47 0,-21 5,-38 16,-50 11,-11 25,-17 43,-17 15,0 28,4 38,14 5,5 10,13 13,23l-26 6c-1,-6 -4,-12 -9,-15 -5,-4 -11,-6 -17,-6 -10,0 -17,3 -23,10 -6,7 -9,18 -9,33 0,16 3,27 9,34 5,7 13,10 22,10 7,0 13,-2 18,-6 5,-4 8,-11 10,-21z"/>
   <polygon id="5" class="fil2" points="1219,1319 1219,1214 1182,1214 1182,1192 1282,1192 1282,1214 1245,1214 1245,1319 "/>
   <path id="6" class="fil2" d="M1299 1192l50 0c10,0 18,1 23,1 5,1 9,3 13,6 4,2 7,6 10,10 2,5 3,10 3,15 0,6 -1,11 -4,16 -4,5 -8,9 -13,12 7,2 13,6 17,11 5,6 7,12 7,19 0,6 -2,12 -4,17 -3,6 -7,10 -11,13 -5,4 -11,6 -18,6 -4,1 -14,1 -30,1l-43 0 0 -127zm25 21l0 30 17 0c10,0 16,-1 18,-1 5,0 8,-2 11,-4 2,-3 3,-6 3,-10 0,-4 -1,-7 -3,-10 -2,-2 -5,-4 -9,-4 -3,-1 -10,-1 -22,-1l-15 0zm0 51l0 34 24 0c9,0 15,0 17,-1 4,-1 7,-2 10,-5 2,-3 3,-6 3,-11 0,-4 -1,-7 -3,-10 -1,-2 -4,-4 -7,-5 -4,-2 -12,-2 -23,-2l-21 0z"/>
   <path id="7" class="fil2" d="M1417 1256c0,-12 1,-23 5,-32 3,-7 7,-13 12,-18 5,-5 11,-9 16,-11 8,-3 17,-5 28,-5 18,0 33,6 45,17 11,12 16,28 16,49 0,20 -5,37 -16,48 -11,12 -26,18 -45,18 -19,0 -34,-6 -45,-18 -11,-11 -16,-27 -16,-48zm26 0c0,14 3,25 10,32 6,8 15,12 25,12 10,0 19,-4 25,-12 7,-7 10,-18 10,-33 0,-14 -3,-25 -10,-32 -6,-8 -14,-11 -25,-11 -11,0 -19,3 -25,11 -7,7 -10,18 -10,33z"/>
   <path class="fil2" d="M273 1178c0,-4 0,-7 -2,-11 -1,-5 -2,-8 -2,-10 0,-3 0,-5 2,-7 1,-1 2,-2 4,-2 2,0 3,1 4,2 2,2 2,4 2,6 0,3 0,6 -2,10 -1,4 -2,8 -2,12 2,-2 5,-4 7,-7 4,-4 6,-6 8,-7 2,-1 4,-2 5,-2 2,0 3,1 5,2 1,1 1,2 1,4 0,2 0,4 -2,5 -2,2 -6,3 -13,5 -4,1 -7,2 -10,3 3,1 6,2 10,3 6,1 10,3 12,4 2,2 3,4 3,6 0,1 0,3 -2,4 -1,1 -2,2 -4,2 -1,0 -3,-1 -5,-2 -2,-1 -4,-4 -7,-7 -3,-3 -5,-5 -8,-8 0,3 0,7 1,10 2,6 3,10 3,13 0,2 0,3 -2,5 -1,1 -2,2 -4,2 -1,0 -3,-1 -5,-2 -1,-1 -1,-3 -1,-5 0,-3 0,-6 1,-9 2,-4 2,-6 3,-8 0,-1 0,-3 0,-6 -3,2 -5,5 -8,7 -3,5 -6,7 -8,8 -1,1 -3,2 -4,2 -2,0 -3,-1 -5,-2 -1,-1 -2,-3 -2,-4 0,-1 1,-3 2,-4 1,-2 3,-3 5,-4 1,0 4,-1 9,-2 3,-1 7,-2 10,-3 -3,-2 -6,-3 -10,-4 -7,-1 -11,-2 -12,-3 -2,-2 -4,-4 -4,-6 0,-2 1,-3 2,-4 1,-2 3,-2 4,-2 2,0 4,0 6,2 2,1 4,3 7,6 3,3 6,6 8,8z"/>
   <path id="1" class="fil3 str3" d="M273 1178c0,-4 0,-7 -2,-11 -1,-5 -2,-8 -2,-10 0,-3 0,-5 2,-7 1,-1 2,-2 4,-2 2,0 3,1 4,2 2,2 2,4 2,6 0,3 0,6 -2,10 -1,4 -2,8 -2,12 2,-2 5,-4 7,-7 4,-4 6,-6 8,-7 2,-1 4,-2 5,-2 2,0 3,1 5,2 1,1 1,2 1,4 0,2 0,4 -2,5 -2,2 -6,3 -13,5 -4,1 -7,2 -10,3 3,1 6,2 10,3 6,1 10,3 12,4 2,2 3,4 3,6 0,1 0,3 -2,4 -1,1 -2,2 -4,2 -1,0 -3,-1 -5,-2 -2,-1 -4,-4 -7,-7 -3,-3 -5,-5 -8,-8 0,3 0,7 1,10 2,6 3,10 3,13 0,2 0,3 -2,5 -1,1 -2,2 -4,2 -1,0 -3,-1 -5,-2 -1,-1 -1,-3 -1,-5 0,-3 0,-6 1,-9 2,-4 2,-6 3,-8 0,-1 0,-3 0,-6 -3,2 -5,5 -8,7 -3,5 -6,7 -8,8 -1,1 -3,2 -4,2 -2,0 -3,-1 -5,-2 -1,-1 -2,-3 -2,-4 0,-1 1,-3 2,-4 1,-2 3,-3 5,-4 1,0 4,-1 9,-2 3,-1 7,-2 10,-3 -3,-2 -6,-3 -10,-4 -7,-1 -11,-2 -12,-3 -2,-2 -4,-4 -4,-6 0,-2 1,-3 2,-4 1,-2 3,-2 4,-2 2,0 4,0 6,2 2,1 4,3 7,6 3,3 6,6 8,8z"/>
   <path class="fil2" d="M1824 1172c0,-3 -1,-7 -2,-10 -2,-6 -3,-9 -3,-11 0,-3 1,-5 2,-6 1,-2 3,-2 5,-2 1,0 3,0 4,2 1,1 2,3 2,6 0,2 -1,5 -2,10 -2,4 -3,8 -3,11 3,-2 5,-4 8,-6 3,-4 6,-7 8,-8 1,-1 3,-1 5,-1 1,0 3,0 4,1 1,1 2,3 2,4 0,2 -1,4 -3,6 -2,1 -6,3 -13,4 -4,1 -7,2 -10,3 3,2 6,3 10,3 7,2 11,3 13,5 2,1 3,3 3,5 0,2 -1,3 -2,4 -1,1 -3,2 -4,2 -2,0 -4,0 -5,-2 -2,-1 -5,-3 -8,-7 -2,-2 -5,-5 -8,-7 0,3 1,6 2,10 2,6 3,10 3,12 0,2 -1,4 -2,5 -2,2 -3,2 -4,2 -2,0 -4,0 -5,-2 -2,-1 -2,-3 -2,-5 0,-2 1,-5 2,-9 1,-3 2,-6 2,-7 0,-2 1,-3 1,-6 -3,2 -6,4 -8,7 -4,4 -7,7 -9,8 -1,1 -2,1 -4,1 -2,0 -3,-1 -4,-2 -2,-1 -2,-2 -2,-4 0,-1 0,-2 1,-4 1,-1 3,-2 5,-3 2,-1 5,-2 10,-3 3,-1 6,-2 9,-3 -3,-1 -6,-2 -10,-3 -6,-1 -10,-3 -12,-4 -2,-2 -3,-4 -3,-6 0,-1 0,-3 1,-4 2,-1 3,-2 5,-2 1,0 3,1 5,2 2,1 4,3 7,7 3,3 6,5 9,7z"/>
   <path id="1" class="fil3 str3" d="M1824 1172c0,-3 -1,-7 -2,-10 -2,-6 -3,-9 -3,-11 0,-3 1,-5 2,-6 1,-2 3,-2 5,-2 1,0 3,0 4,2 1,1 2,3 2,6 0,2 -1,5 -2,10 -2,4 -3,8 -3,11 3,-2 5,-4 8,-6 3,-4 6,-7 8,-8 1,-1 3,-1 5,-1 1,0 3,0 4,1 1,1 2,3 2,4 0,2 -1,4 -3,6 -2,1 -6,3 -13,4 -4,1 -7,2 -10,3 3,2 6,3 10,3 7,2 11,3 13,5 2,1 3,3 3,5 0,2 -1,3 -2,4 -1,1 -3,2 -4,2 -2,0 -4,0 -5,-2 -2,-1 -5,-3 -8,-7 -2,-2 -5,-5 -8,-7 0,3 1,6 2,10 2,6 3,10 3,12 0,2 -1,4 -2,5 -2,2 -3,2 -4,2 -2,0 -4,0 -5,-2 -2,-1 -2,-3 -2,-5 0,-2 1,-5 2,-9 1,-3 2,-6 2,-7 0,-2 1,-3 1,-6 -3,2 -6,4 -8,7 -4,4 -7,7 -9,8 -1,1 -2,1 -4,1 -2,0 -3,-1 -4,-2 -2,-1 -2,-2 -2,-4 0,-1 0,-2 1,-4 1,-1 3,-2 5,-3 2,-1 5,-2 10,-3 3,-1 6,-2 9,-3 -3,-1 -6,-2 -10,-3 -6,-1 -10,-3 -12,-4 -2,-2 -3,-4 -3,-6 0,-1 0,-3 1,-4 2,-1 3,-2 5,-2 1,0 3,1 5,2 2,1 4,3 7,7 3,3 6,5 9,7z"/>
   <path class="fil1" d="M449 1829c0,-3 -1,-6 -2,-8 -1,-4 -2,-7 -2,-8 0,-3 1,-4 2,-5 1,-1 2,-2 3,-2 1,0 3,1 3,2 1,1 2,2 2,4 0,2 -1,5 -2,8 -1,3 -2,6 -2,9 2,-2 4,-3 6,-5 3,-3 5,-5 6,-6 1,-1 3,-1 4,-1 1,0 2,0 3,1 1,1 2,2 2,3 0,2 -1,3 -2,4 -2,1 -5,2 -10,4 -3,0 -6,1 -8,2 2,1 5,2 8,2 5,1 8,2 9,4 2,1 3,2 3,4 0,1 -1,2 -2,3 -1,1 -2,1 -3,1 -1,0 -2,0 -4,-1 -1,-1 -3,-3 -6,-5 -1,-2 -3,-4 -6,-6 0,2 1,5 2,7 1,5 2,8 2,10 0,2 -1,3 -2,4 -1,1 -2,2 -3,2 -1,0 -2,-1 -4,-2 0,-1 -1,-2 -1,-4 0,-2 1,-4 1,-7 1,-3 2,-4 2,-5 0,-1 1,-3 1,-5 -3,2 -5,3 -6,5 -3,4 -5,6 -7,6 -1,1 -2,1 -3,1 -1,0 -2,0 -3,-1 -1,-1 -2,-2 -2,-3 0,-1 1,-2 1,-3 1,-1 2,-2 4,-3 1,0 3,-1 7,-2 3,0 5,-1 7,-2 -2,-1 -4,-2 -7,-3 -5,-1 -8,-2 -9,-2 -2,-2 -3,-3 -3,-5 0,-1 1,-2 1,-3 1,-1 2,-1 4,-1 1,0 2,0 4,1 1,1 3,2 5,5 2,2 5,4 7,6z"/>
   <path id="1" class="fil3 str4" d="M449 1829c0,-3 -1,-6 -2,-8 -1,-4 -2,-7 -2,-8 0,-3 1,-4 2,-5 1,-1 2,-2 3,-2 1,0 3,1 3,2 1,1 2,2 2,4 0,2 -1,5 -2,8 -1,3 -2,6 -2,9 2,-2 4,-3 6,-5 3,-3 5,-5 6,-6 1,-1 3,-1 4,-1 1,0 2,0 3,1 1,1 2,2 2,3 0,2 -1,3 -2,4 -2,1 -5,2 -10,4 -3,0 -6,1 -8,2 2,1 5,2 8,2 5,1 8,2 9,4 2,1 3,2 3,4 0,1 -1,2 -2,3 -1,1 -2,1 -3,1 -1,0 -2,0 -4,-1 -1,-1 -3,-3 -6,-5 -1,-2 -3,-4 -6,-6 0,2 1,5 2,7 1,5 2,8 2,10 0,2 -1,3 -2,4 -1,1 -2,2 -3,2 -1,0 -2,-1 -4,-2 0,-1 -1,-2 -1,-4 0,-2 1,-4 1,-7 1,-3 2,-4 2,-5 0,-1 1,-3 1,-5 -3,2 -5,3 -6,5 -3,4 -5,6 -7,6 -1,1 -2,1 -3,1 -1,0 -2,0 -3,-1 -1,-1 -2,-2 -2,-3 0,-1 1,-2 1,-3 1,-1 2,-2 4,-3 1,0 3,-1 7,-2 3,0 5,-1 7,-2 -2,-1 -4,-2 -7,-3 -5,-1 -8,-2 -9,-2 -2,-2 -3,-3 -3,-5 0,-1 1,-2 1,-3 1,-1 2,-1 4,-1 1,0 2,0 4,1 1,1 3,2 5,5 2,2 5,4 7,6z"/>
   <path class="fil1" d="M1656 1827c0,-3 0,-6 -1,-8 -2,-4 -2,-7 -2,-8 0,-3 0,-4 1,-5 1,-1 2,-2 4,-2 1,0 2,1 3,2 1,1 1,2 1,4 0,2 0,5 -1,8 -1,3 -2,6 -2,9 2,-2 4,-3 6,-5 2,-3 4,-5 6,-6 1,-1 2,-1 4,-1 1,0 2,0 3,1 1,1 1,2 1,3 0,2 0,3 -2,4 -1,1 -4,2 -9,4 -3,0 -6,1 -8,2 2,1 5,2 8,2 4,1 7,2 9,4 1,1 2,2 2,4 0,1 0,2 -1,3 -1,1 -2,1 -3,1 -1,0 -3,0 -4,-1 -2,-1 -4,-3 -6,-5 -2,-2 -4,-4 -6,-6 0,2 0,5 1,7 2,5 2,8 2,10 0,2 0,3 -1,4 -1,1 -2,2 -3,2 -2,0 -3,-1 -4,-2 -1,-1 -1,-2 -1,-4 0,-2 0,-4 1,-7 1,-3 2,-4 2,-5 0,-1 0,-3 0,-5 -2,2 -4,3 -6,5 -3,4 -5,6 -6,6 -1,1 -2,1 -3,1 -2,0 -3,0 -4,-1 -1,-1 -1,-2 -1,-3 0,-1 0,-2 1,-3 1,-1 2,-2 4,-3 1,0 3,-1 7,-2 2,0 5,-1 7,-2 -2,-1 -5,-2 -8,-3 -4,-1 -7,-2 -9,-2 -1,-2 -2,-3 -2,-5 0,-1 0,-2 1,-3 1,-1 2,-1 3,-1 1,0 3,0 4,1 2,1 4,2 6,5 2,2 4,4 6,6z"/>
   <path id="1" class="fil3 str4" d="M1656 1827c0,-3 0,-6 -1,-8 -2,-4 -2,-7 -2,-8 0,-3 0,-4 1,-5 1,-1 2,-2 4,-2 1,0 2,1 3,2 1,1 1,2 1,4 0,2 0,5 -1,8 -1,3 -2,6 -2,9 2,-2 4,-3 6,-5 2,-3 4,-5 6,-6 1,-1 2,-1 4,-1 1,0 2,0 3,1 1,1 1,2 1,3 0,2 0,3 -2,4 -1,1 -4,2 -9,4 -3,0 -6,1 -8,2 2,1 5,2 8,2 4,1 7,2 9,4 1,1 2,2 2,4 0,1 0,2 -1,3 -1,1 -2,1 -3,1 -1,0 -3,0 -4,-1 -2,-1 -4,-3 -6,-5 -2,-2 -4,-4 -6,-6 0,2 0,5 1,7 2,5 2,8 2,10 0,2 0,3 -1,4 -1,1 -2,2 -3,2 -2,0 -3,-1 -4,-2 -1,-1 -1,-2 -1,-4 0,-2 0,-4 1,-7 1,-3 2,-4 2,-5 0,-1 0,-3 0,-5 -2,2 -4,3 -6,5 -3,4 -5,6 -6,6 -1,1 -2,1 -3,1 -2,0 -3,0 -4,-1 -1,-1 -1,-2 -1,-3 0,-1 0,-2 1,-3 1,-1 2,-2 4,-3 1,0 3,-1 7,-2 2,0 5,-1 7,-2 -2,-1 -5,-2 -8,-3 -4,-1 -7,-2 -9,-2 -1,-2 -2,-3 -2,-5 0,-1 0,-2 1,-3 1,-1 2,-1 3,-1 1,0 3,0 4,1 2,1 4,2 6,5 2,2 4,4 6,6z"/>
   <path class="fil1" d="M439 291c0,-2 -1,-5 -2,-8 -1,-4 -2,-6 -2,-8 0,-2 1,-3 2,-5 1,-1 2,-1 3,-1 1,0 2,0 3,1 1,2 2,3 2,5 0,2 -1,4 -2,8 -1,3 -2,6 -2,8 2,-1 4,-3 6,-5 3,-3 5,-5 6,-5 1,-1 3,-2 4,-2 1,0 2,1 3,2 1,1 2,2 2,3 0,1 -1,3 -2,4 -2,1 -5,2 -10,3 -3,1 -6,2 -8,3 2,1 5,2 8,2 5,1 8,2 9,3 2,2 3,3 3,5 0,1 -1,2 -2,3 -1,1 -2,1 -3,1 -1,0 -2,0 -4,-1 -1,-1 -3,-3 -6,-6 -1,-2 -3,-4 -6,-5 0,2 1,4 2,7 1,5 2,8 2,10 0,1 -1,3 -2,4 -1,1 -2,1 -3,1 -1,0 -2,0 -4,-1 -1,-1 -1,-3 -1,-4 0,-2 1,-5 1,-7 1,-3 2,-5 2,-6 0,-1 1,-2 1,-4 -3,1 -5,3 -6,5 -3,3 -5,5 -7,6 -1,1 -2,1 -3,1 -1,0 -3,0 -3,-1 -1,-1 -2,-2 -2,-3 0,-1 1,-2 1,-3 1,-2 2,-2 4,-3 1,-1 3,-1 7,-2 3,-1 5,-1 7,-2 -2,-1 -4,-2 -7,-3 -5,-1 -8,-2 -9,-3 -2,-1 -3,-3 -3,-4 0,-2 1,-2 1,-3 1,-1 2,-2 4,-2 1,0 2,1 4,2 1,0 3,2 5,5 2,2 5,4 7,5z"/>
   <path id="1" class="fil3 str4" d="M439 291c0,-2 -1,-5 -2,-8 -1,-4 -2,-6 -2,-8 0,-2 1,-3 2,-5 1,-1 2,-1 3,-1 1,0 2,0 3,1 1,2 2,3 2,5 0,2 -1,4 -2,8 -1,3 -2,6 -2,8 2,-1 4,-3 6,-5 3,-3 5,-5 6,-5 1,-1 3,-2 4,-2 1,0 2,1 3,2 1,1 2,2 2,3 0,1 -1,3 -2,4 -2,1 -5,2 -10,3 -3,1 -6,2 -8,3 2,1 5,2 8,2 5,1 8,2 9,3 2,2 3,3 3,5 0,1 -1,2 -2,3 -1,1 -2,1 -3,1 -1,0 -2,0 -4,-1 -1,-1 -3,-3 -6,-6 -1,-2 -3,-4 -6,-5 0,2 1,4 2,7 1,5 2,8 2,10 0,1 -1,3 -2,4 -1,1 -2,1 -3,1 -1,0 -2,0 -4,-1 -1,-1 -1,-3 -1,-4 0,-2 1,-5 1,-7 1,-3 2,-5 2,-6 0,-1 1,-2 1,-4 -3,1 -5,3 -6,5 -3,3 -5,5 -7,6 -1,1 -2,1 -3,1 -1,0 -3,0 -3,-1 -1,-1 -2,-2 -2,-3 0,-1 1,-2 1,-3 1,-2 2,-2 4,-3 1,-1 3,-1 7,-2 3,-1 5,-1 7,-2 -2,-1 -4,-2 -7,-3 -5,-1 -8,-2 -9,-3 -2,-1 -3,-3 -3,-4 0,-2 1,-2 1,-3 1,-1 2,-2 4,-2 1,0 2,1 4,2 1,0 3,2 5,5 2,2 5,4 7,5z"/>
   <path class="fil1" d="M1660 288c0,-3 -1,-6 -2,-8 -1,-4 -2,-7 -2,-8 0,-2 1,-4 2,-5 1,-1 2,-2 3,-2 2,0 3,1 4,2 0,1 1,3 1,5 0,1 -1,4 -2,7 -1,3 -1,6 -2,9 3,-1 4,-3 6,-5 3,-3 5,-5 6,-6 2,-1 3,-1 4,-1 1,0 3,0 3,1 1,1 2,2 2,3 0,2 -1,3 -2,4 -1,2 -5,3 -10,4 -3,0 -5,1 -8,2 3,1 5,2 8,3 5,0 8,2 9,3 2,1 3,3 3,4 0,1 -1,2 -2,3 -1,1 -2,2 -3,2 -1,0 -2,-1 -4,-2 -1,-1 -3,-2 -6,-5 -1,-2 -3,-4 -6,-6 0,3 1,5 2,8 1,4 2,8 2,9 0,2 -1,3 -2,4 0,1 -2,2 -3,2 -1,0 -2,-1 -4,-2 0,-1 -1,-2 -1,-4 0,-2 1,-4 2,-7 0,-2 1,-4 1,-5 1,-1 1,-3 1,-5 -2,2 -4,4 -6,5 -3,4 -5,6 -7,7 -1,0 -2,1 -3,1 -1,0 -2,-1 -3,-2 -1,-1 -2,-2 -2,-3 0,-1 1,-2 1,-3 1,-1 2,-2 4,-3 1,0 4,-1 7,-2 3,0 5,-1 8,-2 -3,-1 -5,-2 -8,-2 -5,-1 -8,-2 -9,-3 -2,-1 -3,-3 -3,-5 0,-1 1,-2 2,-3 0,-1 2,-1 3,-1 1,0 2,0 4,1 1,1 3,3 5,5 2,3 5,5 7,6z"/>
   <path id="1" class="fil3 str4" d="M1660 288c0,-3 -1,-6 -2,-8 -1,-4 -2,-7 -2,-8 0,-2 1,-4 2,-5 1,-1 2,-2 3,-2 2,0 3,1 4,2 0,1 1,3 1,5 0,1 -1,4 -2,7 -1,3 -1,6 -2,9 3,-1 4,-3 6,-5 3,-3 5,-5 6,-6 2,-1 3,-1 4,-1 1,0 3,0 3,1 1,1 2,2 2,3 0,2 -1,3 -2,4 -1,2 -5,3 -10,4 -3,0 -5,1 -8,2 3,1 5,2 8,3 5,0 8,2 9,3 2,1 3,3 3,4 0,1 -1,2 -2,3 -1,1 -2,2 -3,2 -1,0 -2,-1 -4,-2 -1,-1 -3,-2 -6,-5 -1,-2 -3,-4 -6,-6 0,3 1,5 2,8 1,4 2,8 2,9 0,2 -1,3 -2,4 0,1 -2,2 -3,2 -1,0 -2,-1 -4,-2 0,-1 -1,-2 -1,-4 0,-2 1,-4 2,-7 0,-2 1,-4 1,-5 1,-1 1,-3 1,-5 -2,2 -4,4 -6,5 -3,4 -5,6 -7,7 -1,0 -2,1 -3,1 -1,0 -2,-1 -3,-2 -1,-1 -2,-2 -2,-3 0,-1 1,-2 1,-3 1,-1 2,-2 4,-3 1,0 4,-1 7,-2 3,0 5,-1 8,-2 -3,-1 -5,-2 -8,-2 -5,-1 -8,-2 -9,-3 -2,-1 -3,-3 -3,-5 0,-1 1,-2 2,-3 0,-1 2,-1 3,-1 1,0 2,0 4,1 1,1 3,3 5,5 2,3 5,5 7,6z"/>
  </g>
 </g>
</svg>
