<svg
    width="250"
    height="250"
    viewBox="0 0 250 250"
    version="1.1"
    xmlns:dc="http://purl.org/dc/elements/1.1/"
    xmlns:cc="http://creativecommons.org/ns#"
    xmlns:rdf="http://www.w3.org/1999/02/22-rdf-syntax-ns#"
    xmlns:svg="http://www.w3.org/2000/svg"
    xmlns="http://www.w3.org/2000/svg">
    <circle class="Rang" cx="125" cy="125" r="109.5" fill="none" stroke="#000099" stroke-width="29" idp="Rang0" layerp="0"></circle>
    <g font-size="18" font-style="normal" font-family="Arial" fill="#ffffff" stroke="none" font-weight="normal" in="0" rad="122" cut="-97" len="194" idp="RangText2" layerp="2">
        <text transform="translate(21.78,137.67) rotate(-93.42)">
            <tspan>С</tspan>
        </text>
        <text transform="translate(21.04,122.18) rotate(-86.24)">
            <tspan>т</tspan>
        </text>
        <text transform="translate(21.85,111.70) rotate(-79.89)">
            <tspan>о</tspan>
        </text>
        <text transform="translate(24.20,99.40) rotate(-72.44)">
            <tspan>м</tspan>
        </text>
        <text transform="translate(28.74,85.62) rotate(-64.99)">
            <tspan>а</tspan>
        </text>
        <text transform="translate(34.17,74.34) rotate(-58.65)">
            <tspan>т</tspan>
        </text>
        <text transform="translate(39.75,65.43) rotate(-52.30)">
            <tspan>о</tspan>
        </text>
        <text transform="translate(47.52,55.62) rotate(-45.12)">
            <tspan>л</tspan>
        </text>
        <text transform="translate(57.17,46.16) rotate(-37.95)">
            <tspan>о</tspan>
        </text>
        <text transform="translate(67.13,38.58) rotate(-31.88)">
            <tspan>г</tspan>
        </text>
        <text transform="translate(75.28,33.66) rotate(-25.81)">
            <tspan>и</tspan>
        </text>
        <text transform="translate(86.61,28.35) rotate(-19.18)">
            <tspan>ч</tspan>
        </text>
        <text transform="translate(97.53,24.69) rotate(-12.56)">
            <tspan>е</tspan>
        </text>
        <text transform="translate(109.78,22.12) rotate(-5.94)">
            <tspan>с</tspan>
        </text>
        <text transform="translate(121.24,21.07) rotate(0.13)">
            <tspan>к</tspan>
        </text>
        <text transform="translate(131.76,21.22) rotate(6.48)">
            <tspan>а</tspan>
        </text>
        <text transform="translate(144.17,22.78) rotate(13.38)">
            <tspan>я</tspan>
        </text>
        <text transform="translate(156.31,25.83) rotate(19.18)">
            <tspan></tspan>
        </text>
        <text transform="translate(164.32,28.72) rotate(24.97)">
            <tspan>п</tspan>
        </text>
        <text transform="translate(175.60,34.14) rotate(31.87)">
            <tspan>о</tspan>
        </text>
        <text transform="translate(186.15,40.88) rotate(39.05)">
            <tspan>л</tspan>
        </text>
        <text transform="translate(196.54,49.52) rotate(46.22)">
            <tspan>и</tspan>
        </text>
        <text transform="translate(205.09,58.66) rotate(52.57)">
            <tspan>к</tspan>
        </text>
        <text transform="translate(211.38,67.08) rotate(59.19)">
            <tspan>л</tspan>
        </text>
        <text transform="translate(218.16,78.77) rotate(66.36)">
            <tspan>и</tspan>
        </text>
        <text transform="translate(223.04,90.30) rotate(73.26)">
            <tspan>н</tspan>
        </text>
        <text transform="translate(226.50,102.32) rotate(80.16)">
            <tspan>и</tspan>
        </text>
        <text transform="translate(228.49,114.68) rotate(86.51)">
            <tspan>к</tspan>
        </text>
        <text transform="translate(229.00,125.18) rotate(92.86)">
            <tspan>а</tspan>
        </text>
    </g>
    <g font-size="18" font-style="normal" font-family="Arial" fill="#ffffff" stroke="none" font-weight="normal" in="1" rad="118.5" cut="-143.5" len="78" idp="RangText3" layerp="3">
        <text transform="translate(56.39,216.04) rotate(35.24)">
            <tspan></tspan>
        </text>
        <text transform="translate(63.80,221.18) rotate(31.21)">
            <tspan></tspan>
        </text>
        <text transform="translate(69.82,224.76) rotate(27.44)">
            <tspan>г</tspan>
        </text>
        <text transform="translate(76.97,228.39) rotate(21.65)">
            <tspan>.</tspan>
        </text>
        <text transform="translate(90.96,233.80) rotate(14.86)">
            <tspan></tspan>
        </text>
        <text transform="translate(102.60,236.78) rotate(8.82)">
            <tspan>В</tspan>
        </text>
        <text transform="translate(114.48,238.51) rotate(2.78)">
            <tspan>о</tspan>
        </text>
        <text transform="translate(126.48,238.99) rotate(-3.01)">
            <tspan>р</tspan>
        </text>
        <text transform="translate(137.47,238.32) rotate(-8.79)">
            <tspan>о</tspan>
        </text>
        <text transform="translate(149.32,236.38) rotate(-14.83)">
            <tspan>н</tspan>
        </text>
        <text transform="translate(160.90,233.20) rotate(-20.87)">
            <tspan>е</tspan>
        </text>
        <text transform="translate(172.08,228.82) rotate(-26.91)">
            <tspan>ж</tspan>
        </text>
        <text transform="translate(182.74,223.29) rotate(-32.69)">
            <tspan></tspan>
        </text>
        <text transform="translate(191.96,217.27) rotate(-37.98)">
            <tspan></tspan>
        </text>
    </g>
    <circle class="Rang" cx="125" cy="125" r="83" fill="none" stroke="#000099" stroke-width="2" idp="Rang4" layerp="4"></circle>
    <g class="Img_l" x="125" y="161" s="47" transform="matrix(0.47,0,0,0.47,66.25,102.25)" fill="#000099" stroke="#000099" idp="Img5" layerp="5">
        <path
            fill="#000099"
            d="M69 130c-6,-18 -20,-68 -7,-81 10,-9 41,-4 63,2l1 -1c15,-3 50,-12 62,-1 13,13 -1,63 -7,81 4,12 8,35 -1,56 -7,19 -28,30 -29,7 0,-25 6,-49 -26,-59 -32,10 -26,34 -26,59 -1,23 -22,12 -29,-7 -9,-21 -5,-44 -1,-56l0 0zm8 -11c1,0 3,-1 4,-2 0,-1 0,-3 0,-4l-5 1c0,2 1,3 1,5l0 0zm92 -64c-1,0 -2,0 -3,0 21,21 2,45 10,52 8,-29 9,-53 -7,-52l0 0zm-89 54c0,-1 0,-2 0,-2l-6 0c0,1 0,2 1,3l5 -1 0 0zm-1 -8c-3,-22 1,-40 28,-38 1,-2 1,-3 1,-4 -17,-3 -28,-4 -34,1 -6,6 -6,21 -1,41l6 0z"
            stroke="#000099"></path>
    </g>
    <text x="125" y="89" fill="#000099" stroke="none" font-size="40" font-family="Arial" font-style="normal" font-weight="bold" idp="Text6" layerp="6">
        <tspan dy="12.60" text-anchor="middle">Врач</tspan>
    </text>
    <g font-size="28" font-style="normal" font-family="Times New Roman" fill="#ffffff" stroke="none" font-weight="normal" in="0" rad="122" cut="113" len="360" idp="RangText7" layerp="7">
        <text transform="translate(211.53,161.73) rotate(117.27)">
            <tspan>*</tspan>
        </text>
    </g>
    <g font-size="28" font-style="normal" font-family="Times New Roman" fill="#ffffff" stroke="none" font-weight="normal" in="0" rad="122" cut="-121" len="360" idp="RangText8" layerp="8">
        <text transform="translate(44.43,173.41) rotate(-116.73)">
            <tspan>*</tspan>
        </text>
    </g>
</svg>
